<?xml version="1.0" encoding="UTF-8"?>
<svg version="1.1" xmlns="http://www.w3.org/2000/svg" width="800" height="800">
<path d="M0 0 C264 0 528 0 800 0 C800 264 800 528 800 800 C536 800 272 800 0 800 C0 536 0 272 0 0 Z " fill="#FEFEFE" transform="translate(0,0)"/>
<path d="M0 0 C81.80184332 0 81.80184332 0 93 10 C100.49271859 17.95482458 102.62166849 25.63760269 102.34375 36.46484375 C101.44314419 45.72675576 97.85018007 52.73346756 91 59 C86.78125 62 86.78125 62 84 62 C84 62.99 84 63.98 84 65 C85.2065625 65.0928125 85.2065625 65.0928125 86.4375 65.1875 C95.62777977 67.28352872 103.24843492 73.27225839 108.38671875 81.1171875 C110.60233536 85.23745699 111 87.06107303 111 92 C121.56 92 132.12 92 143 92 C143 98.27 143 104.54 143 111 C132.44 111 121.88 111 111 111 C110.34 113.97 109.68 116.94 109 120 C106.3124865 126.14001212 101.07440953 132.96279524 95 136 C115.295 136.495 115.295 136.495 136 137 C136 143.27 136 149.54 136 156 C120.49 156 104.98 156 89 156 C89 166.23 89 176.46 89 187 C107.15 187 125.3 187 144 187 C144 193.27 144 199.54 144 206 C118.59 206 93.18 206 67 206 C67 185.21 67 164.42 67 143 C44.89 143 22.78 143 0 143 C0 95.81 0 48.62 0 0 Z " fill="#5473FF" transform="translate(169,284)"/>
<path d="M0 0 C25.08 0 50.16 0 76 0 C76 6.27 76 12.54 76 19 C65.44 19 54.88 19 44 19 C43.34 21.97 42.68 24.94 42 28 C39.3124865 34.14001212 34.07440953 40.96279524 28 44 C48.295 44.495 48.295 44.495 69 45 C69 51.27 69 57.54 69 64 C53.49 64 37.98 64 22 64 C22 74.23 22 84.46 22 95 C40.15 95 58.3 95 77 95 C77 101.27 77 107.54 77 114 C51.59 114 26.18 114 0 114 C0 76.38 0 38.76 0 0 Z " fill="#3AB6FF" transform="translate(236,376)"/>
<path d="M0 0 C11.075625 -0.12375 11.075625 -0.12375 22.375 -0.25 C25.8407251 -0.30462402 25.8407251 -0.30462402 29.37646484 -0.36035156 C31.23794632 -0.37205004 33.09943815 -0.38223911 34.9609375 -0.390625 C36.37403198 -0.4213208 36.37403198 -0.4213208 37.81567383 -0.45263672 C45.12303806 -0.4564239 52.43990037 0.69191415 57.97836304 5.83831787 C62.13304672 10.52421262 63.16974156 13.40958305 63.25 19.75 C63.27578125 20.96171875 63.3015625 22.1734375 63.328125 23.421875 C62.89006863 28.19877546 61.50697573 31.43171262 58.17578125 34.8984375 C57.25345703 35.62933594 57.25345703 35.62933594 56.3125 36.375 C55.68988281 36.87773437 55.06726563 37.38046875 54.42578125 37.8984375 C53.95527344 38.26195312 53.48476563 38.62546875 53 39 C53.5775 39.27328125 54.155 39.5465625 54.75 39.828125 C61.90000882 43.55208793 67.40326673 48.20980018 70 56 C70.83557377 65.88990597 69.42712498 72.49212057 64.25 80.8125 C56.4993889 88.34781635 46.30881038 89.30268641 36.03515625 89.1953125 C35.11827026 89.19329834 34.20138428 89.19128418 33.25671387 89.18920898 C29.85859109 89.17880987 26.46054008 89.15088765 23.0625 89.125 C15.451875 89.08375 7.84125 89.0425 0 89 C0 59.63 0 30.26 0 0 Z " fill="#020202" transform="translate(338,309)"/>
<path d="M0 0 C51.02144161 0 51.02144161 0 58.52734375 7.29296875 C63.92602267 13.55085387 64.70386589 19.44216864 64.44921875 27.65234375 C63.60573601 33.93812381 60.56716798 37.74895735 56 41.9375 C53.1447807 43.90046327 51.40889776 44.6992149 48 45 C48.721875 45.66 49.44375 46.32 50.1875 47 C56.81374039 53.74324219 59.70459754 62.00683772 62.6496582 70.82885742 C63.31815775 72.82943157 64.00255485 74.82403624 64.68945312 76.81835938 C68 86.54752987 68 86.54752987 68 90 C62.06 90 56.12 90 50 90 C49.32453125 87.97617187 48.6490625 85.95234375 47.953125 83.8671875 C47.28662283 81.89055115 46.61709075 79.91496554 45.94726562 77.93945312 C45.48641057 76.57496072 45.02867036 75.20941188 44.57421875 73.84277344 C43.91719607 71.86882371 43.24874531 69.89905312 42.578125 67.9296875 C42.18012695 66.74616699 41.78212891 65.56264648 41.37207031 64.34326172 C39.93288945 60.83647476 38.31284932 58.00113099 36 55 C30.27287157 53.09095719 24.02355259 53.40157017 18 53 C18 65.21 18 77.42 18 90 C12.06 90 6.12 90 0 90 C0 60.3 0 30.6 0 0 Z " fill="#040404" transform="translate(419,407)"/>
<path d="M0 0 C50.14074427 0 50.14074427 0 58.63671875 8.28515625 C65.039427 16.3389927 65.74917199 25.0039051 65 35 C63.40808394 42.115673 59.97270361 47.75475131 54 52 C47.80348209 55.13167623 41.75310629 57.13809946 34.796875 57.09765625 C33.91354492 57.09515869 33.03021484 57.09266113 32.12011719 57.09008789 C31.00797852 57.08098389 29.89583984 57.07187988 28.75 57.0625 C25.2025 57.041875 21.655 57.02125 18 57 C18 67.89 18 78.78 18 90 C12.06 90 6.12 90 0 90 C0 60.3 0 30.6 0 0 Z " fill="#040404" transform="translate(503,407)"/>
<path d="M0 0 C19.8 0 39.6 0 60 0 C60 5.28 60 10.56 60 16 C46.14 16 32.28 16 18 16 C18 22.6 18 29.2 18 36 C30.21 36 42.42 36 55 36 C55 40.95 55 45.9 55 51 C42.79 51 30.58 51 18 51 C18 58.92 18 66.84 18 75 C32.19 75 46.38 75 61 75 C61 79.95 61 84.9 61 90 C40.87 90 20.74 90 0 90 C0 60.3 0 30.6 0 0 Z " fill="#0A0A0A" transform="translate(425,308)"/>
<path d="M0 0 C19.47 0 38.94 0 59 0 C59 4.95 59 9.9 59 15 C45.14 15 31.28 15 17 15 C17 21.93 17 28.86 17 36 C29.21 36 41.42 36 54 36 C54 40.62 54 45.24 54 50 C41.79 50 29.58 50 17 50 C17 58.25 17 66.5 17 75 C31.19 75 45.38 75 60 75 C60 79.95 60 84.9 60 90 C40.2 90 20.4 90 0 90 C0 60.3 0 30.6 0 0 Z " fill="#010101" transform="translate(342,407)"/>
<path d="M0 0 C1.01191406 -0.01546875 2.02382813 -0.0309375 3.06640625 -0.046875 C13.93070857 0.00876803 22.33800293 2.88604731 30.125 10.5 C27.7413187 14.84170523 25.34380117 18.7064129 22.125 22.5 C18.95253499 21.89071864 17.04704951 20.79541456 14.4375 18.9375 C9.77317511 16.25103575 5.63314292 16.0095307 0.375 16 C-0.35807373 15.99411865 -1.09114746 15.9882373 -1.84643555 15.98217773 C-6.32663904 16.08501214 -9.32090686 16.73269084 -12.875 19.5 C-14.51813211 22.78626422 -13.98668351 26.15979793 -13.6875 29.75 C-12.99583766 31.73296017 -12.99583766 31.73296017 -10.6652832 32.52392578 C-7.92902813 33.48110032 -5.24088803 34.21210756 -2.41796875 34.8671875 C-1.38736328 35.11339844 -0.35675781 35.35960937 0.70507812 35.61328125 C2.84718499 36.11806776 4.99041152 36.61812801 7.13476562 37.11328125 C17.00093317 39.48607918 24.91750245 42.33902144 30.875 51.0625 C34.40100483 57.93820943 34.45713214 67.70722025 32.40625 75.0859375 C28.680297 82.9284676 22.34106233 87.33440269 14.5 90.58984375 C3.06211242 93.67436667 -11.2238712 92.5023365 -21.875 87.5 C-26.85228292 84.53152244 -30.91950677 80.70271156 -34.875 76.5 C-33.38423566 73.2173068 -31.48879679 70.56922559 -29.25 67.75 C-28.61835938 66.95078125 -27.98671875 66.1515625 -27.3359375 65.328125 C-26.85382813 64.72484375 -26.37171875 64.1215625 -25.875 63.5 C-22.78195106 63.8313981 -21.97006131 64.38277715 -19.96484375 66.85546875 C-19.27519531 67.72816406 -18.58554687 68.60085938 -17.875 69.5 C-10.11430936 74.9621044 -2.27346185 77.03653327 7.125 75.5 C10.3576063 74.21172885 12.5287602 72.6924796 14.125 69.5 C14.61189773 65.36536024 14.8805551 61.74830843 12.6875 58.125 C7.32102661 54.72187053 1.31332961 53.53114346 -4.81762695 52.07128906 C-15.66183729 49.46857867 -23.31388676 47.02248057 -29.875 37.5 C-33.11023278 31.07267088 -33.03259175 22.90162134 -31.22265625 16.01953125 C-27.92172679 8.6951513 -21.67510972 4.42446822 -14.48608398 1.32910156 C-9.70666335 -0.18851531 -4.97321795 -0.07544705 0 0 Z " fill="#040404" transform="translate(528.875,307.5)"/>
<path d="M0 0 C22.77 0 45.54 0 69 0 C69 4.62 69 9.24 69 14 C60.42 14 51.84 14 43 14 C43 38.75 43 63.5 43 89 C37.39 89 31.78 89 26 89 C26 64.25 26 39.5 26 14 C17.42 14 8.84 14 0 14 C0 9.38 0 4.76 0 0 Z " fill="#000000" transform="translate(570,309)"/>
<path d="M0 0 C9.0646875 -0.12375 9.0646875 -0.12375 18.3125 -0.25 C20.19622314 -0.28641602 22.07994629 -0.32283203 24.02075195 -0.36035156 C43.54509556 -0.58140919 43.54509556 -0.58140919 50.72436523 5.44824219 C53.22787177 8.22186734 54.08740323 10.34961293 55 14 C49.72 14 44.44 14 39 14 C39.01160156 16.00964844 39.02320313 18.01929688 39.03515625 20.08984375 C39.0421074 22.02921424 39.04902396 23.96858503 39.05493164 25.90795898 C39.05997057 27.25920386 39.06680177 28.61044326 39.07543945 29.96166992 C39.08752419 31.90020434 39.09269828 33.838778 39.09765625 35.77734375 C39.10289307 36.94515381 39.10812988 38.11296387 39.11352539 39.31616211 C39 42 39 42 38 43 C35.18859849 43.0886126 32.40120576 43.11529584 29.58984375 43.09765625 C28.84383911 43.09664917 28.09783447 43.09564209 27.32922363 43.09460449 C24.53196687 43.08935689 21.73473196 43.07539573 18.9375 43.0625 C12.688125 43.041875 6.43875 43.02125 0 43 C0 28.81 0 14.62 0 0 Z " fill="#F8FAFF" transform="translate(197,362)"/>
<path d="M0 0 C5.445 -0.0825 10.89 -0.165 16.5 -0.25 C18.20220703 -0.28641602 19.90441406 -0.32283203 21.65820312 -0.36035156 C35.60415948 -0.53582567 35.60415948 -0.53582567 42 4 C46.28211203 9.13853444 46.56309047 13.59360463 46.32421875 20.19140625 C45.68743381 25.70765174 43.29637542 29.56289966 39 33 C34.3583985 34.9225214 30.15456259 35.26973348 25.1953125 35.1953125 C24.55263428 35.19329834 23.90995605 35.19128418 23.24780273 35.18920898 C20.87346135 35.17883578 18.49922263 35.15091395 16.125 35.125 C10.80375 35.08375 5.4825 35.0425 0 35 C0 23.45 0 11.9 0 0 Z " fill="#FEFEFF" transform="translate(198,306)"/>
<path d="M0 0 C6.001875 -0.0928125 6.001875 -0.0928125 12.125 -0.1875 C13.37555176 -0.21481201 14.62610352 -0.24212402 15.91455078 -0.27026367 C23.11958967 -0.32424052 27.77802946 0.20197295 33.375 5.0625 C35.76311474 9.37947665 35.61863574 13.17464123 35 18 C33.73996187 22.07659394 32.86823493 23.49111786 29.1875 25.6484375 C23.71210125 27.85746057 17.86238071 27.31509813 12.0625 27.1875 C8.081875 27.125625 4.10125 27.06375 0 27 C0 18.09 0 9.18 0 0 Z " fill="#F6F6F6" transform="translate(355,357)"/>
<path d="M0 0 C3.17625 -0.0825 6.3525 -0.165 9.625 -0.25 C10.6145166 -0.28641602 11.6040332 -0.32283203 12.62353516 -0.36035156 C18.26535436 -0.43105963 21.59509938 0.12368746 26 4 C29.09333444 7.15219281 29.43194692 9.51027554 29.4375 13.875 C29.29949714 19.01874281 28.71023759 22.18948571 25 26 C20.18585881 28.7455649 15.05324605 28.2228345 9.6875 28.125 C4.8921875 28.063125 4.8921875 28.063125 0 28 C0 18.76 0 9.52 0 0 Z " fill="#FBFBFB" transform="translate(521,421)"/>
<path d="M0 0 C3.17625 -0.061875 6.3525 -0.12375 9.625 -0.1875 C11.1092749 -0.22846802 11.1092749 -0.22846802 12.62353516 -0.27026367 C17.84579149 -0.31935098 21.49998655 0.03796583 26 3 C29.00682104 6.50795788 29.47442556 9.60022858 29.2890625 14.07421875 C28.72578855 17.82684113 26.96606194 20.12369669 24.21582031 22.6184082 C21.51712247 24.30108021 19.95563966 24.34806348 16.796875 24.29296875 C15.91354492 24.28547607 15.03021484 24.2779834 14.12011719 24.27026367 C13.00797852 24.24295166 11.89583984 24.21563965 10.75 24.1875 C5.42875 24.0946875 5.42875 24.0946875 0 24 C0 16.08 0 8.16 0 0 Z " fill="#FBFBFB" transform="translate(437,421)"/>
<path d="M0 0 C3.50625 -0.103125 7.0125 -0.20625 10.625 -0.3125 C11.71893066 -0.35802002 12.81286133 -0.40354004 13.93994141 -0.45043945 C22.01154642 -0.5651981 22.01154642 -0.5651981 25.6484375 2.39453125 C28.39936357 5.44248422 28.93678666 6.17822653 29.25 10.25 C28.97622754 14.35658692 28.29425548 16.59817292 26 20 C22.54604181 21.73891716 19.75919471 22.24244411 15.91796875 22.1953125 C14.65762817 22.18781982 14.65762817 22.18781982 13.37182617 22.18017578 C12.32099854 22.16196777 11.2701709 22.14375977 10.1875 22.125 C5.1446875 22.063125 5.1446875 22.063125 0 22 C0 14.74 0 7.48 0 0 Z " fill="#FCFCFC" transform="translate(356,322)"/>
<path d="M0 0 C7.26 0 14.52 0 22 0 C19.65232758 10.56452589 16.34525465 17.09229481 8 24 C4.8974439 25.8874397 3.84479224 26 0 26 C0 17.42 0 8.84 0 0 Z " fill="#5272FF" transform="translate(258,395)"/>
</svg>
