<?xml version="1.0" encoding="UTF-8"?>
<svg version="1.1" xmlns="http://www.w3.org/2000/svg" width="500" height="500">
<path d="M0 0 C1.19072754 -0.00507454 2.38145509 -0.01014909 3.60826528 -0.0153774 C4.92292953 -0.01587516 6.23759377 -0.01637292 7.59209633 -0.01688576 C8.99768019 -0.0209002 10.4032629 -0.02533839 11.80884421 -0.03016531 C15.68034894 -0.04213821 19.5518412 -0.04778089 23.42336082 -0.05234647 C27.59523017 -0.05829965 31.76708458 -0.06991001 35.93894386 -0.08063698 C46.01714455 -0.10516443 56.09535018 -0.11978705 66.17357153 -0.13269705 C69.01881962 -0.13640822 71.86406722 -0.14038149 74.70931482 -0.14444971 C92.36929495 -0.16968146 110.02927584 -0.19173946 127.68927002 -0.20417786 C131.78013932 -0.20710765 135.87100859 -0.2100693 139.96187782 -0.21308327 C140.9786694 -0.21382932 141.99546098 -0.21457537 143.04306443 -0.21534403 C159.52595775 -0.22800614 176.00874342 -0.26124087 192.49158637 -0.3028851 C209.40460183 -0.34526691 226.31756209 -0.36886839 243.23063052 -0.37409842 C252.73067236 -0.37751641 262.23054584 -0.38931745 271.73053551 -0.42220116 C279.81848685 -0.45015107 287.90623531 -0.46122324 295.99423121 -0.4500057 C300.12252684 -0.44480635 304.25039727 -0.44778795 308.37863159 -0.47247124 C312.15634377 -0.49487077 315.93332303 -0.49429742 319.71104725 -0.47526737 C321.72834899 -0.4711193 323.74565452 -0.49168134 325.7628473 -0.51305425 C335.5182782 -0.42681784 335.5182782 -0.42681784 338.60222244 2.4875145 C341.65613485 7.19978971 341.45821821 11.42095627 341.43955421 16.84982872 C341.44083585 18.20124591 341.44083585 18.20124591 341.44214338 19.57996446 C341.44379575 22.61096397 341.43828074 25.64190862 341.43282509 28.67290306 C341.43254314 30.84080568 341.4327011 33.00870839 341.43326759 35.17661095 C341.43355526 41.07294779 341.42766342 46.96926441 341.42069364 52.86559653 C341.41445505 59.02355774 341.4138559 65.18151938 341.41266823 71.33948326 C341.40955641 83.00540747 341.40134501 94.67132234 341.39131874 106.33724242 C341.38015299 119.61638124 341.37464598 132.89551944 341.3696233 146.17466199 C341.35916229 173.49545131 341.34156571 200.81623233 341.3192997 228.13701439 C341.95601097 228.13479378 342.59272224 228.13257317 343.2487278 228.13028526 C349.85045246 228.10823399 356.45216674 228.09310846 363.05391884 228.08208275 C365.52072003 228.07704083 367.98751822 228.07020748 370.45430946 228.06157494 C373.99134499 228.04950314 377.52834115 228.04378483 381.06539345 228.03935814 C382.17579491 228.03419685 383.28619637 228.02903557 384.43024635 228.02371788 C385.96172058 228.02360458 385.96172058 228.02360458 387.52413368 228.023489 C388.42792259 228.02126839 389.3317115 228.01904778 390.26288795 228.01675987 C392.3192997 228.13701439 392.3192997 228.13701439 393.3192997 229.13701439 C393.41720539 230.63439563 393.44904834 232.13644331 393.4442997 233.63701439 C393.44687782 234.45170189 393.44945595 235.26638939 393.4521122 236.10576439 C393.3192997 238.13701439 393.3192997 238.13701439 392.3192997 239.13701439 C388.56892536 239.65006881 384.78074355 239.85534394 381.0067997 240.13701439 C380.00584267 240.21951439 379.00488564 240.30201439 377.97359657 240.38701439 C353.98133861 242.22264441 329.9172347 242.28982783 305.870785 242.2823981 C301.64817064 242.28219004 297.42556264 242.28775072 293.20295143 242.29245567 C284.96766454 242.30067788 276.73238481 242.30350667 268.49709415 242.30406805 C261.78332291 242.30454742 255.06955397 242.30662286 248.35578346 242.30976868 C229.20995208 242.31855353 210.06412624 242.32319166 190.91829282 242.3224382 C189.37776535 242.32237827 189.37776535 242.32237827 187.8061161 242.32231712 C186.77780479 242.32227624 185.74949348 242.32223536 184.69002122 242.32219324 C168.06697752 242.32178776 151.44395658 242.33133837 134.82091945 242.34545549 C117.64363046 242.35992503 100.46635248 242.36671987 83.28905725 242.36586171 C73.68928017 242.36553328 64.08952715 242.36817723 54.48975563 242.37903976 C-38.67510736 242.47945977 -38.67510736 242.47945977 -68.6807003 239.13701439 C-69.55960655 232.20342064 -69.55960655 232.20342064 -69.6807003 230.13701439 C-67.98834397 228.44465806 -65.83778301 228.9686763 -63.51834679 228.93169212 C-62.41728096 228.9117469 -61.31621513 228.89180168 -60.18178368 228.87125206 C-58.38493881 228.84618332 -58.38493881 228.84618332 -56.55179405 228.82060814 C-55.33242653 228.79982704 -54.11305901 228.77904594 -52.85674095 228.75763512 C-48.94395385 228.69201011 -45.03109714 228.63319467 -41.1182003 228.57451439 C-38.47301068 228.53134148 -35.82782821 228.48772761 -33.18265343 228.44365501 C-26.68207694 228.33631559 -20.18143052 228.23457372 -13.6807003 228.13701439 C-13.67923374 227.00357031 -13.67776718 225.87012623 -13.67625618 224.70233536 C-13.63967756 197.13595663 -13.58024945 169.56969955 -13.49679756 142.00342178 C-13.45697115 128.67261395 -13.42459696 115.34189667 -13.40970421 102.01103783 C-13.39670638 90.39323344 -13.36978946 78.77555942 -13.32608724 67.15782845 C-13.30343051 61.00507832 -13.28779215 54.85248923 -13.28881645 48.69969368 C-13.28956056 42.90977267 -13.27170959 37.12020826 -13.23953247 31.33037949 C-13.23100635 29.20434062 -13.22930185 27.07826188 -13.23489761 24.95221329 C-13.24151807 22.05057559 -13.22366334 19.15007893 -13.19968224 16.24855614 C-13.20744265 15.40613361 -13.21520307 14.56371109 -13.22319865 13.69576061 C-13.14584677 8.41325973 -12.26407232 5.28234399 -8.6807003 1.13701439 C-5.52714822 0.08583036 -3.31139046 0.00747816 0 0 Z " fill="#FCFCFC" transform="translate(87.68070030212402,128.8629856109619)"/>
<path d="M0 0 C1.19072754 -0.00507454 2.38145509 -0.01014909 3.60826528 -0.0153774 C4.92292953 -0.01587516 6.23759377 -0.01637292 7.59209633 -0.01688576 C8.99768019 -0.0209002 10.4032629 -0.02533839 11.80884421 -0.03016531 C15.68034894 -0.04213821 19.5518412 -0.04778089 23.42336082 -0.05234647 C27.59523017 -0.05829965 31.76708458 -0.06991001 35.93894386 -0.08063698 C46.01714455 -0.10516443 56.09535018 -0.11978705 66.17357153 -0.13269705 C69.01881962 -0.13640822 71.86406722 -0.14038149 74.70931482 -0.14444971 C92.36929495 -0.16968146 110.02927584 -0.19173946 127.68927002 -0.20417786 C131.78013932 -0.20710765 135.87100859 -0.2100693 139.96187782 -0.21308327 C140.9786694 -0.21382932 141.99546098 -0.21457537 143.04306443 -0.21534403 C159.52595775 -0.22800614 176.00874342 -0.26124087 192.49158637 -0.3028851 C209.40460183 -0.34526691 226.31756209 -0.36886839 243.23063052 -0.37409842 C252.73067236 -0.37751641 262.23054584 -0.38931745 271.73053551 -0.42220116 C279.81848685 -0.45015107 287.90623531 -0.46122324 295.99423121 -0.4500057 C300.12252684 -0.44480635 304.25039727 -0.44778795 308.37863159 -0.47247124 C312.15634377 -0.49487077 315.93332303 -0.49429742 319.71104725 -0.47526737 C321.72834899 -0.4711193 323.74565452 -0.49168134 325.7628473 -0.51305425 C335.5182782 -0.42681784 335.5182782 -0.42681784 338.60222244 2.4875145 C341.65613485 7.19978971 341.45821821 11.42095627 341.43955421 16.84982872 C341.44083585 18.20124591 341.44083585 18.20124591 341.44214338 19.57996446 C341.44379575 22.61096397 341.43828074 25.64190862 341.43282509 28.67290306 C341.43254314 30.84080568 341.4327011 33.00870839 341.43326759 35.17661095 C341.43355526 41.07294779 341.42766342 46.96926441 341.42069364 52.86559653 C341.41445505 59.02355774 341.4138559 65.18151938 341.41266823 71.33948326 C341.40955641 83.00540747 341.40134501 94.67132234 341.39131874 106.33724242 C341.38015299 119.61638124 341.37464598 132.89551944 341.3696233 146.17466199 C341.35916229 173.49545131 341.34156571 200.81623233 341.3192997 228.13701439 C341.95601097 228.13479378 342.59272224 228.13257317 343.2487278 228.13028526 C349.85045246 228.10823399 356.45216674 228.09310846 363.05391884 228.08208275 C365.52072003 228.07704083 367.98751822 228.07020748 370.45430946 228.06157494 C373.99134499 228.04950314 377.52834115 228.04378483 381.06539345 228.03935814 C382.17579491 228.03419685 383.28619637 228.02903557 384.43024635 228.02371788 C385.96172058 228.02360458 385.96172058 228.02360458 387.52413368 228.023489 C388.42792259 228.02126839 389.3317115 228.01904778 390.26288795 228.01675987 C392.3192997 228.13701439 392.3192997 228.13701439 393.3192997 229.13701439 C393.41720539 230.63439563 393.44904834 232.13644331 393.4442997 233.63701439 C393.44687782 234.45170189 393.44945595 235.26638939 393.4521122 236.10576439 C393.3192997 238.13701439 393.3192997 238.13701439 392.3192997 239.13701439 C388.56892536 239.65006881 384.78074355 239.85534394 381.0067997 240.13701439 C380.00584267 240.21951439 379.00488564 240.30201439 377.97359657 240.38701439 C353.98133861 242.22264441 329.9172347 242.28982783 305.870785 242.2823981 C301.64817064 242.28219004 297.42556264 242.28775072 293.20295143 242.29245567 C284.96766454 242.30067788 276.73238481 242.30350667 268.49709415 242.30406805 C261.78332291 242.30454742 255.06955397 242.30662286 248.35578346 242.30976868 C229.20995208 242.31855353 210.06412624 242.32319166 190.91829282 242.3224382 C189.37776535 242.32237827 189.37776535 242.32237827 187.8061161 242.32231712 C186.77780479 242.32227624 185.74949348 242.32223536 184.69002122 242.32219324 C168.06697752 242.32178776 151.44395658 242.33133837 134.82091945 242.34545549 C117.64363046 242.35992503 100.46635248 242.36671987 83.28905725 242.36586171 C73.68928017 242.36553328 64.08952715 242.36817723 54.48975563 242.37903976 C-38.67510736 242.47945977 -38.67510736 242.47945977 -68.6807003 239.13701439 C-69.55960655 232.20342064 -69.55960655 232.20342064 -69.6807003 230.13701439 C-67.98834397 228.44465806 -65.83778301 228.9686763 -63.51834679 228.93169212 C-62.41728096 228.9117469 -61.31621513 228.89180168 -60.18178368 228.87125206 C-58.38493881 228.84618332 -58.38493881 228.84618332 -56.55179405 228.82060814 C-55.33242653 228.79982704 -54.11305901 228.77904594 -52.85674095 228.75763512 C-48.94395385 228.69201011 -45.03109714 228.63319467 -41.1182003 228.57451439 C-38.47301068 228.53134148 -35.82782821 228.48772761 -33.18265343 228.44365501 C-26.68207694 228.33631559 -20.18143052 228.23457372 -13.6807003 228.13701439 C-13.67923374 227.00357031 -13.67776718 225.87012623 -13.67625618 224.70233536 C-13.63967756 197.13595663 -13.58024945 169.56969955 -13.49679756 142.00342178 C-13.45697115 128.67261395 -13.42459696 115.34189667 -13.40970421 102.01103783 C-13.39670638 90.39323344 -13.36978946 78.77555942 -13.32608724 67.15782845 C-13.30343051 61.00507832 -13.28779215 54.85248923 -13.28881645 48.69969368 C-13.28956056 42.90977267 -13.27170959 37.12020826 -13.23953247 31.33037949 C-13.23100635 29.20434062 -13.22930185 27.07826188 -13.23489761 24.95221329 C-13.24151807 22.05057559 -13.22366334 19.15007893 -13.19968224 16.24855614 C-13.20744265 15.40613361 -13.21520307 14.56371109 -13.22319865 13.69576061 C-13.14584677 8.41325973 -12.26407232 5.28234399 -8.6807003 1.13701439 C-5.52714822 0.08583036 -3.31139046 0.00747816 0 0 Z M-6.5084191 7.94577301 C-8.26216788 11.22390021 -8.09735956 14.44334767 -8.06838036 18.06999779 C-8.07376589 18.87505304 -8.07915143 19.68010829 -8.08470017 20.50955915 C-8.09902149 23.2104023 -8.09186584 25.91075822 -8.08475304 28.61162376 C-8.09045438 30.54658974 -8.09741772 32.48155235 -8.10555077 34.41650963 C-8.12352217 39.67468644 -8.12230644 44.93269675 -8.11660838 50.19089508 C-8.11352265 54.5773354 -8.11960203 58.96374346 -8.12564713 63.3501792 C-8.13970349 73.69565536 -8.13812148 84.04104896 -8.12674522 94.38652611 C-8.11525923 105.06799676 -8.1293453 115.74921647 -8.1561417 126.43065405 C-8.17827359 135.59507059 -8.18494185 144.75940821 -8.17906529 153.92384958 C-8.17568893 159.40021364 -8.17815588 164.87641676 -8.19531631 170.35275841 C-8.21074366 175.50085915 -8.2068768 180.64858703 -8.18801117 185.79667282 C-8.18431377 187.68813758 -8.18746709 189.57962972 -8.19789696 191.47106934 C-8.21103001 194.04915755 -8.19962858 196.6259973 -8.18190575 199.20403099 C-8.19151075 199.95616796 -8.20111576 200.70830493 -8.21101183 201.48323393 C-8.1648896 204.73399965 -8.00810851 206.70853574 -6.00646693 209.32808119 C-3.10418451 211.58541645 -1.61655378 211.6371994 2.03213692 211.63758564 C3.20457183 211.64739993 4.37700675 211.65721422 5.58497 211.66732591 C7.51860175 211.6529184 7.51860175 211.6529184 9.49129677 211.63821983 C10.87371217 211.64211165 12.25612357 211.64775114 13.63852549 211.65499073 C17.44143474 211.66978081 21.24393143 211.65954338 25.04682755 211.64525402 C29.14641587 211.63416814 33.24594517 211.64607889 37.34552956 211.65509605 C45.37822922 211.66904685 53.41077194 211.66145881 61.44346416 211.64642047 C70.79291735 211.62958157 80.14233122 211.63276795 89.49179488 211.63651455 C106.17081914 211.6423965 122.84976797 211.62820844 139.52877235 211.60356712 C155.72248602 211.57964537 171.91609888 211.57256244 188.10982704 211.58305931 C205.73309613 211.59446232 223.35631856 211.59640623 240.97958708 211.58196121 C242.85791556 211.58043534 244.73624404 211.57891498 246.61457253 211.57740021 C247.53880667 211.57664239 248.46304081 211.57588458 249.41528204 211.5751038 C255.93619718 211.57035619 262.45709153 211.57221578 268.97800636 211.57646561 C276.92211902 211.58138654 284.86613626 211.57543359 292.81022704 211.55557131 C296.86537982 211.54568303 300.92038718 211.54061067 304.97554779 211.54846382 C308.68518954 211.555501 312.39453734 211.54876245 316.10414022 211.53086019 C318.08729832 211.52487552 320.07048383 211.53366079 322.0536294 211.5429067 C323.22606431 211.53446676 324.39849923 211.52602682 325.60646248 211.51733112 C327.12740745 211.51578743 327.12740745 211.51578743 328.67907858 211.51421255 C331.7611994 211.07388189 333.13940247 210.34286917 335.3192997 208.13701439 C335.71793261 205.3600964 335.85525817 202.97604313 335.82050514 200.19693565 C335.82603954 199.37907304 335.83157394 198.56121042 335.83727604 197.71856409 C335.85092789 194.96833739 335.83588916 192.21901111 335.82100868 189.4688015 C335.82479019 187.5011818 335.83028883 185.53356476 335.83738136 183.56595421 C335.85137431 178.21481594 335.84013966 172.86399781 335.82367015 167.51287723 C335.80985023 161.92173094 335.81627615 156.33060382 335.81980324 150.73944664 C335.82250756 141.35002526 335.80900987 131.96073156 335.78585243 122.57134056 C335.7592336 111.7029974 335.75749724 100.83486767 335.7692408 89.96650308 C335.78000471 79.52642573 335.77384292 69.08642587 335.75968552 58.64635468 C335.75391444 54.19620567 335.75401716 49.74611316 335.75875092 45.29596329 C335.76350905 40.06009507 335.7534675 34.82446179 335.73179626 29.58863831 C335.72621258 27.66247793 335.72577749 25.73629504 335.73074913 23.81013298 C335.73666619 21.18986088 335.7242665 18.57031586 335.70697975 15.95010948 C335.7129898 15.17979186 335.71899984 14.40947425 335.72519201 13.61581367 C335.73249199 11.28519506 335.73249199 11.28519506 335.3192997 8.13701439 C331.90455677 5.86051911 330.70601926 5.88527973 326.69548225 5.87974548 C325.5174549 5.87329659 324.33942754 5.8668477 323.12570238 5.86020339 C321.82523769 5.86330059 320.524773 5.86639779 319.18490028 5.86958885 C317.79438896 5.86585425 316.40387973 5.8612535 315.01337385 5.85585821 C311.18358941 5.84358949 307.35389206 5.8438932 303.52409244 5.84624696 C299.39724607 5.84665414 295.27042801 5.83562552 291.14359474 5.82613182 C283.05566422 5.80950042 274.96776284 5.80402134 266.87981665 5.80290706 C260.30858928 5.80195775 253.73737155 5.7978533 247.16614723 5.79150581 C228.5503167 5.77388876 209.93450926 5.76466785 191.31867033 5.76616676 C190.3145372 5.76624667 189.31040407 5.76632659 188.27584267 5.76640892 C186.76781205 5.76653156 186.76781205 5.76653156 185.22931617 5.76665668 C168.92614747 5.76747006 152.62307106 5.74832064 136.31992906 5.72013219 C119.59449946 5.69144087 102.86911492 5.67758977 86.14366007 5.67931974 C76.74767378 5.67998487 67.35178427 5.67443882 57.95582008 5.65296364 C49.95785191 5.63480126 41.9600244 5.63036371 33.9620446 5.64398248 C29.87861629 5.65053686 25.79545822 5.65054105 21.71205521 5.63327599 C17.97769804 5.61764853 14.2438277 5.62030164 10.50948316 5.63784425 C8.51060683 5.64240814 6.51171601 5.62717631 4.51289701 5.61136496 C3.33486966 5.62056255 2.1568423 5.62976014 0.94311714 5.63923645 C-0.07784349 5.63880171 -1.09880412 5.63836698 -2.15070295 5.63791907 C-4.79567608 5.91763942 -4.79567608 5.91763942 -6.5084191 7.94577301 Z " fill="#ABABAB" transform="translate(87.68070030212402,128.8629856109619)"/>
<path d="M0 0 C1.78179127 -0.01358496 1.78179127 -0.01358496 3.59957832 -0.02744436 C5.56676145 -0.01945247 5.56676145 -0.01945247 7.57368565 -0.01129913 C8.97586115 -0.01618529 10.37803262 -0.02237381 11.7801972 -0.02975702 C15.64229194 -0.04621481 19.50418333 -0.04382685 23.36630094 -0.03838205 C27.52794351 -0.03571902 31.68953098 -0.05022992 35.85115147 -0.06247711 C44.00760856 -0.08356394 52.16399462 -0.08807011 60.32047575 -0.08628923 C66.94795388 -0.08498327 73.57540978 -0.08877723 80.20288372 -0.09621429 C82.10956003 -0.09831341 84.01623634 -0.10041102 85.92291266 -0.10250711 C86.87182112 -0.10355064 87.82072958 -0.10459417 88.79839284 -0.10566932 C106.7573757 -0.12458471 124.71631775 -0.12351747 142.67530645 -0.11669999 C159.11685429 -0.11112318 175.55824638 -0.13195355 191.99975782 -0.16506046 C208.86871068 -0.19876532 225.73758885 -0.21396983 242.60657603 -0.20934343 C252.08253676 -0.20709554 261.55835351 -0.21238849 271.03428555 -0.23723602 C279.10105728 -0.25820781 287.1676061 -0.2618823 295.23438685 -0.24293643 C299.35241943 -0.23375307 303.47003592 -0.23271431 307.58803654 -0.25329208 C311.35523346 -0.27190915 315.12167084 -0.26760445 318.888838 -0.24474627 C320.90288512 -0.23853703 322.91696114 -0.25702673 324.93092579 -0.27628279 C326.12139438 -0.26447745 327.31186297 -0.25267211 328.53840637 -0.24050903 C330.08294767 -0.24091761 330.08294767 -0.24091761 331.65869182 -0.24133444 C334.33212376 0.38311005 334.33212376 0.38311005 336.66294539 2.67137086 C338.26714341 5.27754328 338.83220974 6.41653442 338.83269501 9.39455605 C338.8425093 10.16204143 338.85232359 10.92952681 338.86243528 11.72026932 C338.85283027 12.55188548 338.84322527 13.38350165 338.8333292 14.2403183 C338.8388636 15.13268814 338.84439799 16.02505798 338.8501001 16.94446933 C338.8637143 19.93487888 338.84873318 22.92445495 338.83383274 25.91484833 C338.83761558 28.05847783 338.84311532 30.2021049 338.85020542 32.34572601 C338.86418015 38.16786346 338.85297668 43.98970607 338.83649421 49.81182718 C338.8226592 55.8989756 338.82910188 61.98610662 338.8326273 68.07326508 C338.83533023 78.29394543 338.82184518 88.5145084 338.79867649 98.73516083 C338.77205208 110.56236747 338.77032389 122.389378 338.78206486 134.21660435 C338.79283148 145.58359298 338.78666525 156.95051047 338.77250957 168.31749344 C338.76674153 173.16035767 338.76683885 178.00316999 338.77157497 182.846035 C338.77633574 188.544022 338.76628044 194.24179329 338.74462032 199.93973923 C338.73904051 202.03480044 338.73859803 204.12988233 338.74357319 206.22494507 C338.74949792 209.07682839 338.73707522 211.92804589 338.71980381 214.77986908 C338.72881888 216.03398549 338.72881888 216.03398549 338.73801607 217.31343758 C338.67640913 222.87758951 338.67640913 222.87758951 337.16622281 225.09502381 C334.58575197 226.90728633 332.74671002 226.75569077 329.60622215 226.75225353 C328.40544432 226.75822668 327.2046665 226.76419982 325.96750146 226.77035397 C324.62825049 226.76179434 323.28900128 226.75295754 321.94975376 226.7438736 C320.53235631 226.74518112 319.11495956 226.74780656 317.69756669 226.75164109 C313.79351263 226.75836855 309.88970416 226.74632254 305.98568141 226.73130691 C301.77915081 226.71838324 297.57263469 226.7227334 293.36608982 226.72501373 C286.07493703 226.7265888 278.78386462 226.71715529 271.49273205 226.70030022 C260.95091759 226.6759463 250.4091421 226.66810865 239.86730256 226.66433624 C222.76497807 226.65776609 205.66269645 226.63778963 188.56039524 226.60942841 C171.94451201 226.58190243 155.32864041 226.5606617 138.71273899 226.54790497 C137.17711202 226.54672271 137.17711202 226.54672271 135.61046229 226.54551657 C130.47473782 226.54160154 125.33901328 226.53781039 120.20328867 226.53408086 C77.57953734 226.50296739 34.95583276 226.45011624 -7.66787624 226.38311005 C-9.31877462 223.0813133 -8.81200942 219.40247933 -8.80831814 215.77277374 C-8.81128926 214.87071652 -8.81426038 213.96865929 -8.81732154 213.039267 C-8.82603506 209.99835453 -8.82751901 206.9574813 -8.82900906 203.91655731 C-8.83363529 201.74381678 -8.83865968 199.57107707 -8.84405422 197.39833832 C-8.85719746 191.48315502 -8.86362672 185.56798307 -8.86806488 179.65278745 C-8.870992 175.9611726 -8.87509607 172.26956089 -8.87956905 168.57794762 C-8.89324793 157.03905805 -8.90291315 145.50017561 -8.90677094 133.9612785 C-8.91125534 120.61984704 -8.92881929 107.27853943 -8.95777154 93.93713909 C-8.97934938 83.63819655 -8.98947311 73.33928287 -8.99081206 63.04031795 C-8.99186273 56.88266159 -8.99782605 50.72510131 -9.01563168 44.56746864 C-9.03204548 38.77844951 -9.03430056 32.98959937 -9.02549267 27.20056534 C-9.02471874 25.07163098 -9.02911147 22.94268778 -9.03895092 20.81377602 C-9.05156322 17.91578947 -9.04585238 15.01841128 -9.03536892 12.12042999 C-9.04342532 11.27063318 -9.05148173 10.42083637 -9.05978227 9.54528815 C-9.01164548 3.88729139 -9.01164548 3.88729139 -7.49887246 1.66861719 C-4.93558093 -0.13102038 -3.11995616 0.00476147 0 0 Z M-6.49559504 5.19186866 C-8.24934382 8.46999587 -8.0845355 11.68944333 -8.0555563 15.31609344 C-8.06094184 16.1211487 -8.06632737 16.92620395 -8.07187611 17.75565481 C-8.08619743 20.45649796 -8.07904178 23.15685388 -8.07192898 25.85771942 C-8.07763032 27.7926854 -8.08459366 29.727648 -8.09272671 31.66260529 C-8.11069811 36.9207821 -8.10948238 42.17879241 -8.10378432 47.43699074 C-8.10069859 51.82343106 -8.10677798 56.20983911 -8.11282307 60.59627485 C-8.12687943 70.94175102 -8.12529742 81.28714462 -8.11392117 91.63262177 C-8.10243518 102.31409241 -8.11652124 112.99531213 -8.14331764 123.67674971 C-8.16544953 132.84116624 -8.1721178 142.00550387 -8.16624123 151.16994524 C-8.16286488 156.64630929 -8.16533182 162.12251242 -8.18249226 167.59885406 C-8.1979196 172.74695481 -8.19405274 177.89468269 -8.17518711 183.04276848 C-8.17148971 184.93423324 -8.17464303 186.82572537 -8.1850729 188.71716499 C-8.19820595 191.2952532 -8.18680452 193.87209296 -8.16908169 196.45012665 C-8.17868669 197.20226362 -8.1882917 197.95440059 -8.19818777 198.72932959 C-8.15206554 201.98009531 -7.99528445 203.9546314 -5.99364287 206.57417685 C-3.09136045 208.83151211 -1.60372972 208.88329505 2.04496098 208.8836813 C3.21739589 208.89349559 4.38983081 208.90330988 5.59779406 208.91342157 C7.53142581 208.89901406 7.53142581 208.89901406 9.50412083 208.88431549 C10.88653622 208.88820731 12.26894763 208.8938468 13.65134954 208.90108639 C17.4542588 208.91587647 21.25675548 208.90563904 25.05965161 208.89134967 C29.15923992 208.8802638 33.25876922 208.89217455 37.35835361 208.90119171 C45.39105328 208.9151425 53.423596 208.90755447 61.45628822 208.89251613 C70.80574141 208.87567723 80.15515528 208.87886361 89.50461894 208.88261021 C106.1836432 208.88849216 122.86259203 208.8743041 139.54159641 208.84966278 C155.73531008 208.82574103 171.92892294 208.81865809 188.1226511 208.82915497 C205.74592019 208.84055797 223.36914262 208.84250188 240.99241114 208.82805687 C242.87073961 208.82653099 244.7490681 208.82501064 246.62739658 208.82349586 C247.55163072 208.82273805 248.47586486 208.82198024 249.4281061 208.82119946 C255.94902124 208.81645185 262.46991559 208.81831144 268.99083042 208.82256126 C276.93494307 208.82748219 284.87896032 208.82152924 292.8230511 208.80166697 C296.87820388 208.79177869 300.93321124 208.78670632 304.98837185 208.79455948 C308.6980136 208.80159665 312.4073614 208.79485811 316.11696428 208.77695585 C318.10012237 208.77097118 320.08330789 208.77975645 322.06645346 208.78900236 C323.23888837 208.78056242 324.41132329 208.77212248 325.61928654 208.76342678 C327.14023151 208.76188309 327.14023151 208.76188309 328.69190264 208.76030821 C331.77402346 208.31997755 333.15222653 207.58896483 335.33212376 205.38311005 C335.73075667 202.60619206 335.86808223 200.22213879 335.8333292 197.44303131 C335.8388636 196.6251687 335.84439799 195.80730608 335.8501001 194.96465975 C335.86375195 192.21443305 335.84871322 189.46510677 335.83383274 186.71489716 C335.83761425 184.74727746 335.84311289 182.77966041 335.85020542 180.81204987 C335.86419837 175.46091159 335.85296372 170.11009346 335.83649421 164.75897288 C335.82267429 159.1678266 335.82910021 153.57669948 335.8326273 147.9855423 C335.83533162 138.59612092 335.82183393 129.20682722 335.79867649 119.81743622 C335.77205766 108.94909306 335.7703213 98.08096333 335.78206486 87.21259874 C335.79282877 76.77252139 335.78666698 66.33252152 335.77250957 55.89245033 C335.7667385 51.44230132 335.76684122 46.99220881 335.77157497 42.54205894 C335.77633311 37.30619073 335.76629156 32.07055745 335.74462032 26.83473396 C335.73903664 24.90857358 335.73860154 22.98239069 335.74357319 21.05622864 C335.74949025 18.43595654 335.73709056 15.81641152 335.71980381 13.19620514 C335.72581386 12.42588752 335.7318239 11.65556991 335.73801607 10.86190933 C335.74531605 8.53129072 335.74531605 8.53129072 335.33212376 5.38311005 C331.91738083 3.10661476 330.71884332 3.13137538 326.70830631 3.12584114 C325.53027895 3.11939225 324.3522516 3.11294336 323.13852644 3.10629904 C321.83806175 3.10939625 320.53759706 3.11249345 319.19772434 3.11568451 C317.80721301 3.11194991 316.41670379 3.10734915 315.02619791 3.10195386 C311.19641347 3.08968515 307.36671612 3.08998885 303.53691649 3.09234262 C299.41007013 3.0927498 295.28325207 3.08172118 291.1564188 3.07222748 C283.06848828 3.05559608 274.9805869 3.050117 266.89264071 3.04900272 C260.32141334 3.0480534 253.75019561 3.04394896 247.17897129 3.03760147 C228.56314076 3.01998442 209.94733332 3.0107635 191.33149439 3.01226242 C190.32736126 3.01234233 189.32322813 3.01242224 188.28866673 3.01250458 C186.78063611 3.01262722 186.78063611 3.01262722 185.24214023 3.01275234 C168.93897153 3.01356571 152.63589512 2.99441629 136.33275312 2.96622784 C119.60732352 2.93753653 102.88193898 2.92368543 86.15648413 2.9254154 C76.76049784 2.92608053 67.36460833 2.92053448 57.96864414 2.8990593 C49.97067597 2.88089692 41.97284846 2.87645936 33.97486866 2.89007814 C29.89144035 2.89663251 25.80828228 2.89663671 21.72487926 2.87937164 C17.9905221 2.86374419 14.25665175 2.86639729 10.52230722 2.88393991 C8.52343089 2.88850379 6.52454007 2.87327197 4.52572107 2.85746062 C3.34769372 2.86665821 2.16966636 2.8758558 0.9559412 2.88533211 C-0.06501943 2.88489737 -1.08598006 2.88446264 -2.13787889 2.88401473 C-4.78285202 3.16373507 -4.78285202 3.16373507 -6.49559504 5.19186866 Z " fill="#080808" transform="translate(87.66787624359131,131.61688995361328)"/>
<path d="M0 0 C34.33333333 0 34.33333333 0 41 5 C44.18963056 8.73956687 44.46173545 12.11871762 44.2890625 16.859375 C43.61943989 21.81820193 40.09378831 25.26611756 37 29 C37.70125 29.020625 38.4025 29.04125 39.125 29.0625 C43.29783484 30.42320701 45.67041842 33.33351078 48 37 C48 37.99 48 38.98 48 40 C52.29 40 56.58 40 61 40 C61 42.64 61 45.28 61 48 C56.71 48 52.42 48 48 48 C47.731875 49.093125 47.46375 50.18625 47.1875 51.3125 C45.63494968 56.13357731 45.63494968 56.13357731 43 58 C42.34 58 41.68 58 41 58 C41 58.66 41 59.32 41 60 C46.61 60 52.22 60 58 60 C58 62.31 58 64.62 58 67 C51.73 67 45.46 67 39 67 C39 71.62 39 76.24 39 81 C46.59 81 54.18 81 62 81 C62 83.64 62 86.28 62 89 C51.11 89 40.22 89 29 89 C29 80.09 29 71.18 29 62 C19.43 62 9.86 62 0 62 C0 41.54 0 21.08 0 0 Z " fill="#5975F7" transform="translate(152,187)"/>
<path d="M0 0 C1.51400391 0.01740234 1.51400391 0.01740234 3.05859375 0.03515625 C4.07050781 0.04417969 5.08242188 0.05320312 6.125 0.0625 C7.29869141 0.07990234 7.29869141 0.07990234 8.49609375 0.09765625 C8.82609375 2.40765625 9.15609375 4.71765625 9.49609375 7.09765625 C32.76787363 7.95556315 56.0118225 8.26342108 79.29802525 8.29826486 C84.06027957 8.30644194 88.82251913 8.32007688 93.58476257 8.33297729 C101.79370206 8.35450085 110.00264321 8.37273039 118.21159554 8.38858223 C130.07968291 8.41150499 141.94775378 8.43961381 153.81582695 8.46890151 C173.08106802 8.51630679 192.34631594 8.55964231 211.61157227 8.6003418 C230.30200734 8.63983581 248.9924364 8.68129421 267.68286133 8.7253418 C269.41724893 8.72942821 269.41724893 8.72942821 271.18667466 8.73359717 C276.98853159 8.74727893 282.79038843 8.76099875 288.59224522 8.77473748 C336.56018208 8.88827595 384.52813207 8.99517734 432.49609375 9.09765625 C432.49609375 9.42765625 432.49609375 9.75765625 432.49609375 10.09765625 C430.45549897 10.41708066 428.41352151 10.72766987 426.37109375 11.03515625 C425.23414063 11.20917969 424.0971875 11.38320313 422.92578125 11.5625 C411.89585265 13.01489383 400.81661696 13.24457517 389.70736694 13.23136902 C388.27058752 13.23324253 386.8338086 13.23554535 385.39703047 13.23823434 C381.48884691 13.24429386 377.58068492 13.24422568 373.67249775 13.24303997 C369.4400939 13.24283442 365.2076967 13.24836987 360.97529602 13.25309753 C352.69130007 13.26137663 344.40731124 13.26415129 336.1233115 13.26470991 C329.36915962 13.26518716 322.61501006 13.26725228 315.86085892 13.27041054 C296.63231344 13.279216 277.40377352 13.28383104 258.17522602 13.28308006 C257.14029206 13.28304011 256.1053581 13.28300015 255.0390625 13.28295898 C254.00283417 13.2829181 252.96660583 13.28287722 251.89897664 13.2828351 C235.18451154 13.28243049 218.47006917 13.29195349 201.75561063 13.30609735 C184.51548416 13.32056828 167.27536868 13.32736145 150.035236 13.32650357 C140.38830196 13.32617487 130.74139186 13.32883026 121.09446335 13.33968163 C27.51503398 13.43994099 27.51503398 13.43994099 -2.50390625 10.09765625 C-3.3828125 3.1640625 -3.3828125 3.1640625 -3.50390625 1.09765625 C-2.50390625 0.09765625 -2.50390625 0.09765625 0 0 Z " fill="#484848" transform="translate(21.50390625,357.90234375)"/>
<path d="M0 0 C1.78179127 -0.01358496 1.78179127 -0.01358496 3.59957832 -0.02744436 C5.56676145 -0.01945247 5.56676145 -0.01945247 7.57368565 -0.01129913 C8.97586115 -0.01618529 10.37803262 -0.02237381 11.7801972 -0.02975702 C15.64229194 -0.04621481 19.50418333 -0.04382685 23.36630094 -0.03838205 C27.52794351 -0.03571902 31.68953098 -0.05022992 35.85115147 -0.06247711 C44.00760856 -0.08356394 52.16399462 -0.08807011 60.32047575 -0.08628923 C66.94795388 -0.08498327 73.57540978 -0.08877723 80.20288372 -0.09621429 C82.10956003 -0.09831341 84.01623634 -0.10041102 85.92291266 -0.10250711 C86.87182112 -0.10355064 87.82072958 -0.10459417 88.79839284 -0.10566932 C106.7573757 -0.12458471 124.71631775 -0.12351747 142.67530645 -0.11669999 C159.11685429 -0.11112318 175.55824638 -0.13195355 191.99975782 -0.16506046 C208.86871068 -0.19876532 225.73758885 -0.21396983 242.60657603 -0.20934343 C252.08253676 -0.20709554 261.55835351 -0.21238849 271.03428555 -0.23723602 C279.10105728 -0.25820781 287.1676061 -0.2618823 295.23438685 -0.24293643 C299.35241943 -0.23375307 303.47003592 -0.23271431 307.58803654 -0.25329208 C311.35523346 -0.27190915 315.12167084 -0.26760445 318.888838 -0.24474627 C320.90288512 -0.23853703 322.91696114 -0.25702673 324.93092579 -0.27628279 C326.12139438 -0.26447745 327.31186297 -0.25267211 328.53840637 -0.24050903 C330.08294767 -0.24091761 330.08294767 -0.24091761 331.65869182 -0.24133444 C334.33212376 0.38311005 334.33212376 0.38311005 336.66346914 2.67084712 C338.2703616 5.28272066 338.83117925 6.41873601 338.82431507 9.40293598 C338.83227926 10.17227146 338.84024346 10.94160694 338.84844899 11.73425561 C338.83679763 12.56791813 338.82514626 13.40158065 338.81314182 14.26050568 C338.81655952 15.15499222 338.81997722 16.04947875 338.82349849 16.97107095 C338.83008744 19.96852516 338.80808434 22.96508403 338.78622532 25.96245575 C338.78509706 28.11094898 338.78573027 30.25944376 338.78799534 32.4079361 C338.78914426 38.24229951 338.76560587 44.07633481 338.73769951 49.91062188 C338.71271564 56.00716256 338.71034623 62.10371053 338.70559788 68.20029449 C338.69315927 79.74580596 338.66032554 91.29116616 338.62019992 102.83661097 C338.57550987 115.98034911 338.55350211 129.12409443 338.53341818 142.26788962 C338.4915938 169.30638034 338.4212244 196.34473672 338.33212376 223.38311005 C338.00212376 223.38311005 337.67212376 223.38311005 337.33212376 223.38311005 C337.00212376 216.78311005 336.67212376 210.18311005 336.33212376 203.38311005 C336.00212376 203.38311005 335.67212376 203.38311005 335.33212376 203.38311005 C334.83712376 105.37311005 334.83712376 105.37311005 334.33212376 5.38311005 C331.70690553 4.07050093 329.77004064 4.25527031 326.82856083 4.25168228 C325.65190782 4.24784114 324.47525481 4.24399999 323.26294565 4.24004245 C321.958886 4.24090893 320.65482635 4.24177541 319.31124973 4.24266815 C317.92089044 4.24008593 316.5305319 4.23707317 315.14017439 4.23366475 C311.30622022 4.22557496 307.47228476 4.22380409 303.63832307 4.22306728 C299.50876024 4.22122021 295.3792072 4.21367474 291.24965 4.20693207 C282.21479966 4.19333519 273.17995374 4.1873222 264.14509487 4.18292141 C258.50836562 4.18016184 252.8716381 4.17592507 247.23491001 4.17141724 C231.64109244 4.15922387 216.04727625 4.14892399 200.45345402 4.14554214 C198.95568658 4.1452128 198.95568658 4.1452128 197.42766121 4.14487679 C195.92623568 4.14454938 195.92623568 4.14454938 194.39447832 4.14421535 C192.36604373 4.14377187 190.33760913 4.14332531 188.30917454 4.14287567 C187.30299298 4.14265424 186.29681143 4.14243281 185.26013952 4.14220467 C168.94331769 4.13825363 152.62654044 4.12079059 136.30973583 4.09751615 C119.57417742 4.07383618 102.83864141 4.06134186 86.10306597 4.06017423 C76.69984574 4.05925569 67.29668362 4.05345837 57.89347935 4.03535461 C49.88925834 4.01999896 41.8851134 4.01480627 33.88088048 4.02309272 C29.79357367 4.02701512 25.70642024 4.02599273 21.61913204 4.01203537 C17.88239622 3.99939117 14.14593054 4.00040936 10.4091956 4.01262608 C8.40655374 4.01553946 6.40390762 4.00357601 4.40130186 3.99120402 C3.22464885 3.99779387 2.04799584 4.00438371 0.83568668 4.01117325 C-0.69713695 4.01027762 -0.69713695 4.01027762 -2.26092672 4.00936389 C-3.05522007 4.13270012 -3.84951341 4.25603635 -4.66787624 4.38311005 C-7.14608374 8.10042129 -6.95727809 10.95819531 -6.94634914 15.2607193 C-6.95214155 16.07182594 -6.95793395 16.88293258 -6.96390188 17.71861821 C-6.98095257 20.44560785 -6.98378272 23.17242877 -6.9867239 25.89946747 C-6.99601858 27.85062833 -7.00618656 29.8017852 -7.01716518 31.75293732 C-7.04453112 37.0583671 -7.0596341 42.36377024 -7.07259321 47.66925216 C-7.08819495 53.21064683 -7.11499455 58.75198685 -7.14062405 64.29334259 C-7.1874643 74.79051488 -7.22418299 85.2876974 -7.25729692 95.78492099 C-7.29548128 107.73401098 -7.34490106 119.68304615 -7.39528108 131.63208997 C-7.49867895 156.21572273 -7.58791376 180.79939068 -7.66787624 205.38311005 C-7.99787624 205.38311005 -8.32787624 205.38311005 -8.66787624 205.38311005 C-8.7378856 179.09741287 -8.79082478 152.81172962 -8.82331276 126.52595806 C-8.83879688 114.3216535 -8.85991588 102.11740678 -8.8941946 89.91313934 C-8.9240497 79.27877001 -8.94344 68.64444255 -8.95014173 58.01003247 C-8.95406059 52.37659447 -8.96330245 46.74327631 -8.98506641 41.10987663 C-9.00537014 35.81171449 -9.01172246 30.51372202 -9.00719929 25.21552467 C-9.00802723 23.26719365 -9.01402914 21.31885717 -9.02549267 19.37055969 C-9.0403412 16.717687 -9.036858 14.06546133 -9.02863979 11.41257477 C-9.03737832 10.63534174 -9.04611684 9.85810871 -9.05512017 9.05732316 C-9.01155646 3.88188566 -9.01155646 3.88188566 -7.49904704 1.68681365 C-4.93709223 -0.13717225 -3.13217101 0.00478011 0 0 Z " fill="#0C0C0C" transform="translate(87.66787624359131,131.61688995361328)"/>
<path d="M0 0 C1.19072754 -0.00507454 2.38145509 -0.01014909 3.60826528 -0.0153774 C4.92292953 -0.01587516 6.23759377 -0.01637292 7.59209633 -0.01688576 C8.99768019 -0.0209002 10.4032629 -0.02533839 11.80884421 -0.03016531 C15.68034894 -0.04213821 19.5518412 -0.04778089 23.42336082 -0.05234647 C27.59523017 -0.05829965 31.76708458 -0.06991001 35.93894386 -0.08063698 C46.01714455 -0.10516443 56.09535018 -0.11978705 66.17357153 -0.13269705 C69.01881962 -0.13640822 71.86406722 -0.14038149 74.70931482 -0.14444971 C92.36929495 -0.16968146 110.02927584 -0.19173946 127.68927002 -0.20417786 C131.78013932 -0.20710765 135.87100859 -0.2100693 139.96187782 -0.21308327 C140.9786694 -0.21382932 141.99546098 -0.21457537 143.04306443 -0.21534403 C159.52595775 -0.22800614 176.00874342 -0.26124087 192.49158637 -0.3028851 C209.40460183 -0.34526691 226.31756209 -0.36886839 243.23063052 -0.37409842 C252.73067236 -0.37751641 262.23054584 -0.38931745 271.73053551 -0.42220116 C279.81848685 -0.45015107 287.90623531 -0.46122324 295.99423121 -0.4500057 C300.12252684 -0.44480635 304.25039727 -0.44778795 308.37863159 -0.47247124 C312.15634377 -0.49487077 315.93332303 -0.49429742 319.71104725 -0.47526737 C321.72834899 -0.4711193 323.74565452 -0.49168134 325.7628473 -0.51305425 C335.5182782 -0.42681784 335.5182782 -0.42681784 338.60222244 2.4875145 C341.65613485 7.19978971 341.45821821 11.42095627 341.43955421 16.84982872 C341.44083585 18.20124591 341.44083585 18.20124591 341.44214338 19.57996446 C341.44379575 22.61096397 341.43828074 25.64190862 341.43282509 28.67290306 C341.43254314 30.84080568 341.4327011 33.00870839 341.43326759 35.17661095 C341.43355526 41.07294779 341.42766342 46.96926441 341.42069364 52.86559653 C341.41445505 59.02355774 341.4138559 65.18151938 341.41266823 71.33948326 C341.40955641 83.00540747 341.40134501 94.67132234 341.39131874 106.33724242 C341.38015299 119.61638124 341.37464598 132.89551944 341.3696233 146.17466199 C341.35916229 173.4954525 341.34081864 200.8162302 341.3192997 228.13701439 C358.1492997 228.13701439 374.9792997 228.13701439 392.3192997 228.13701439 C392.3192997 228.46701439 392.3192997 228.79701439 392.3192997 229.13701439 C374.8292997 229.13701439 357.3392997 229.13701439 339.3192997 229.13701439 C339.3192997 191.51701439 339.3192997 153.89701439 339.3192997 115.13701439 C338.9892997 115.13701439 338.6592997 115.13701439 338.3192997 115.13701439 C338.31691134 114.5892522 338.31452299 114.04149002 338.31206226 113.47712898 C338.25292395 100.14831302 338.17719247 86.81968026 338.08358479 73.49106026 C338.0388191 67.04542091 337.99957654 60.59984568 337.97286415 54.15410423 C337.94689319 47.93593626 337.90653462 41.71801421 337.85611343 35.49999809 C337.8394027 33.12532925 337.82791471 30.75061783 337.82168579 28.37589836 C337.81209059 25.0547959 337.78408551 21.73432865 337.75167274 18.41338158 C337.75382538 16.9341597 337.75382538 16.9341597 337.7560215 15.42505455 C337.73721428 14.06633484 337.73721428 14.06633484 337.71802711 12.68016624 C337.71341815 11.89479862 337.70880919 11.109431 337.70406055 10.30026436 C337.19885682 7.45984557 336.32584885 6.21108021 334.3192997 4.13701439 C331.66135995 3.53345902 331.66135995 3.53345902 328.57778072 3.6292057 C327.3735195 3.61775811 326.16925828 3.60631052 324.92850429 3.59451604 C323.58532278 3.60199941 322.24214328 3.60985153 320.89896584 3.61803246 C319.47743728 3.61216054 318.05591506 3.60453525 316.63440436 3.59530139 C312.71893038 3.57496868 308.80381719 3.57961372 304.88831437 3.58820891 C300.66947178 3.59313887 296.45072156 3.57508746 292.23191261 3.55978966 C284.9194912 3.53643711 277.60716907 3.52773089 270.29471207 3.52889824 C259.72207715 3.53056498 249.14957489 3.51025832 238.57697531 3.48454294 C221.42476503 3.44342297 204.27257855 3.42013915 187.12032509 3.40801048 C170.45591378 3.39618872 153.79154731 3.37600501 137.12716103 3.34453392 C136.10042272 3.34259782 135.07368441 3.34066172 134.01583282 3.33866695 C128.86512394 3.32890262 123.7144154 3.31897347 118.56370699 3.30896235 C75.81559312 3.22608877 33.06747768 3.17213552 -9.6807003 3.13701439 C-7.75650017 -0.71138587 -3.81976754 0.00862624 0 0 Z " fill="#D6D6D6" transform="translate(87.68070030212402,128.8629856109619)"/>
<path d="M0 0 C0.33 0 0.66 0 1 0 C1.02332532 28.40639766 1.04097737 56.81279389 1.05181217 85.21919918 C1.05697591 98.40777341 1.06402008 111.59634169 1.07543945 124.78491211 C1.08538392 136.2755172 1.09185286 147.766118 1.09408849 159.25672728 C1.09539601 165.34500985 1.0984844 171.43328012 1.10573006 177.52155876 C1.11248653 183.24483633 1.11461773 188.96809646 1.11310768 194.69137764 C1.11338418 196.79857096 1.1153915 198.90576483 1.11920547 201.01295471 C1.12413691 203.8765325 1.12300033 206.7400433 1.12025452 209.60362244 C1.12316736 210.44893632 1.1260802 211.29425021 1.12908131 212.16517967 C1.11412121 217.88587879 1.11412121 217.88587879 0 219 C-41.66960851 222.83069544 -41.66960851 222.83069544 -56.84301758 210.24389648 C-59.67477332 207.65205757 -61.86515173 205.2022724 -64 202 C-63.26972595 201.99635437 -62.5394519 201.99270874 -61.78704834 201.98895264 C-54.90089183 201.95106733 -48.01512443 201.89420864 -41.12931442 201.81609726 C-37.58928335 201.77660745 -34.04950156 201.74442683 -30.50927734 201.72900391 C-26.43807057 201.71094629 -22.36779546 201.66100275 -18.296875 201.609375 C-17.02696716 201.60814636 -15.75705933 201.60691772 -14.44866943 201.60565186 C-13.26774719 201.58593323 -12.08682495 201.5662146 -10.87011719 201.54589844 C-9.31124786 201.53257477 -9.31124786 201.53257477 -7.72088623 201.51898193 C-4.15800402 200.83939766 -3.18280138 199.88916752 -1 197 C-0.60376618 194.2153203 -0.45239711 191.82409603 -0.48101807 189.0401001 C-0.47351681 188.23222258 -0.46601556 187.42434507 -0.458287 186.59198642 C-0.43796783 183.8817024 -0.44612062 181.17225159 -0.45410156 178.46191406 C-0.44536884 176.52045359 -0.43488411 174.57900033 -0.42277527 172.63755798 C-0.39485786 167.36311267 -0.39151185 162.08890153 -0.39249516 156.81439304 C-0.38937099 151.30367825 -0.36376314 145.79306969 -0.34051514 140.28240967 C-0.29991355 129.84545874 -0.27960464 119.40857036 -0.26654124 108.97155261 C-0.25068529 97.09013029 -0.21227559 85.20881463 -0.17194796 73.32745409 C-0.08949207 48.88500516 -0.0354355 24.44255911 0 0 Z " fill="#020202" transform="translate(424,138)"/>
<path d="M0 0 C0.33 0 0.66 0 1 0 C1 5.94 1 11.88 1 18 C6.28 18 11.56 18 17 18 C17 14.04 17 10.08 17 6 C18.98 6 20.96 6 23 6 C23 5.01 23 4.02 23 3 C22.01 2.67 21.02 2.34 20 2 C20.66 1.67 21.32 1.34 22 1 C22.66 1.33 23.32 1.66 24 2 C24 3.32 24 4.64 24 6 C32.25 6 40.5 6 49 6 C49 8.64 49 11.28 49 14 C44.71 14 40.42 14 36 14 C35.731875 15.093125 35.46375 16.18625 35.1875 17.3125 C33.63494968 22.13357731 33.63494968 22.13357731 31 24 C30.34 24 29.68 24 29 24 C29 24.66 29 25.32 29 26 C34.61 26 40.22 26 46 26 C46 28.31 46 30.62 46 33 C39.73 33 33.46 33 27 33 C27 37.62 27 42.24 27 47 C34.59 47 42.18 47 50 47 C50 49.64 50 52.28 50 55 C39.11 55 28.22 55 17 55 C16.814375 50.545 16.62875 46.09 16.4375 41.5 C16.37618896 40.11103516 16.31487793 38.72207031 16.25170898 37.29101562 C16.20860596 36.17404297 16.16550293 35.05707031 16.12109375 33.90625 C16.0739624 32.77509766 16.02683105 31.64394531 15.97827148 30.47851562 C16.00226566 26.63729087 16.52354541 22.81163671 17 19 C11.39 19 5.78 19 0 19 C0 12.73 0 6.46 0 0 Z " fill="#4AB3F6" transform="translate(164,221)"/>
<path d="M0 0 C5.0428125 -0.0928125 5.0428125 -0.0928125 10.1875 -0.1875 C11.76374146 -0.22846802 11.76374146 -0.22846802 13.37182617 -0.27026367 C22.08459005 -0.34795924 22.08459005 -0.34795924 26 3 C27.5635348 6.12706959 27.39958487 9.57982443 27 13 C26.01 14.485 26.01 14.485 25 16 C24.34 16 23.68 16 23 16 C23 16.66 23 17.32 23 18 C23.78375 18.268125 24.5675 18.53625 25.375 18.8125 C28 20 28 20 30 23 C30.48384204 27.91906075 30.51355236 30.05848735 28.125 34.4375 C26 37 26 37 24 38 C22.18658158 38.08471364 20.37005839 38.10721083 18.5546875 38.09765625 C17.58515137 38.09515869 16.61561523 38.09266113 15.61669922 38.09008789 C14.38193848 38.08098389 13.14717773 38.07187988 11.875 38.0625 C5.996875 38.0315625 5.996875 38.0315625 0 38 C0 25.46 0 12.92 0 0 Z " fill="#0F0F0F" transform="translate(225,198)"/>
<path d="M0 0 C0.66 0.66 1.32 1.32 2 2 C1.34 2.66 0.68 3.32 0 4 C-0.19360325 6.93341978 -0.26034352 9.77212365 -0.24050903 12.70645142 C-0.24221788 13.61879244 -0.24392673 14.53113347 -0.24568737 15.47112119 C-0.2489975 18.54674382 -0.23795357 21.62215118 -0.22705078 24.69775391 C-0.226487 26.89506526 -0.22680259 29.09237698 -0.22793579 31.28968811 C-0.22851158 37.27081662 -0.21672074 43.25186554 -0.20278788 49.23297548 C-0.19031813 55.47769045 -0.18911299 61.72240707 -0.18673706 67.96713257 C-0.18121937 78.45368744 -0.16871168 88.94021759 -0.15087891 99.42675781 C-0.13252806 110.2291652 -0.1183906 121.03156459 -0.10986328 131.83398438 C-0.10932729 132.50635155 -0.10879129 133.17871873 -0.10823905 133.87146068 C-0.10361352 139.71985276 -0.09930785 145.56824507 -0.09503365 151.41663742 C-0.07620566 176.61111919 -0.03636733 201.80552331 0 227 C66.99 227 133.98 227 203 227 C203 227.33 203 227.66 203 228 C134.36 228 65.72 228 -5 228 C-4.505 227.01 -4.505 227.01 -4 226 C-3.90615018 223.09432925 -3.87433478 220.21280085 -3.88647461 217.30700684 C-3.88632575 216.39607694 -3.88617689 215.48514705 -3.88602352 214.54661322 C-3.88672136 211.47571387 -3.89457875 208.40487339 -3.90234375 205.33398438 C-3.90426167 203.13991835 -3.90572606 200.94585189 -3.9067688 198.75178528 C-3.90993651 194.01817521 -3.91621511 189.28458286 -3.92483521 184.55097961 C-3.93831508 177.07317231 -3.94424267 169.59537097 -3.94897461 162.11755371 C-3.95631418 151.63940037 -3.96643279 141.16125312 -3.97949219 130.68310547 C-3.98073391 129.68522826 -3.98073391 129.68522826 -3.98200071 128.66719192 C-3.98790144 123.94479449 -3.99393525 119.22239723 -4 114.5 C-4.00692773 109.10563162 -4.01379528 103.71126318 -4.02050781 98.31689453 C-4.02175 97.32022889 -4.02175 97.32022889 -4.02301729 96.30342859 C-4.03668965 85.23601646 -4.04641474 74.16860369 -4.05341816 63.10118532 C-4.05841584 55.66042879 -4.06829823 48.21969921 -4.08184814 40.77895355 C-4.0892825 36.158353 -4.09261834 31.53775622 -4.0948143 26.9171505 C-4.09669398 24.76683517 -4.10030999 22.61652059 -4.10574722 20.46621132 C-4.11291172 17.54178761 -4.11400328 14.61742409 -4.11352539 11.69299316 C-4.11712035 10.83250162 -4.12071531 9.97201007 -4.12441921 9.08544302 C-4.11409279 3.22818558 -4.11409279 3.22818558 -3 1 C-2.01 0.67 -1.02 0.34 0 0 Z " fill="#666666" transform="translate(80,131)"/>
<path d="M0 0 C3.17625 -0.0825 6.3525 -0.165 9.625 -0.25 C10.6145166 -0.28641602 11.6040332 -0.32283203 12.62353516 -0.36035156 C18.40954762 -0.43286678 21.5990505 0.15451015 26 4 C27.72393401 7.44786802 27.50222927 11.22993228 27 15 C25.125 17.5625 25.125 17.5625 23 19 C22.34 19 21.68 19 21 19 C21.32613281 19.47308594 21.65226562 19.94617188 21.98828125 20.43359375 C25.72785035 26.0925877 29 32.07241143 29 39 C26.36 39 23.72 39 21 39 C20.73445313 38.16855469 20.46890625 37.33710938 20.1953125 36.48046875 C19.84210938 35.39378906 19.48890625 34.30710937 19.125 33.1875 C18.77695312 32.10855469 18.42890625 31.02960938 18.0703125 29.91796875 C17.08040347 26.86684198 17.08040347 26.86684198 15 24 C12.69 23.67 10.38 23.34 8 23 C8 28.28 8 33.56 8 39 C5.36 39 2.72 39 0 39 C0 26.13 0 13.26 0 0 Z " fill="#101010" transform="translate(260,240)"/>
<path d="M0 0 C2.47501405 0.34138125 3.76737257 0.78389073 5.61417103 2.49955368 C7.63803768 6.15120914 7.4032447 9.69024391 7.36076355 13.75714111 C7.36332682 14.65077323 7.3658901 15.54440534 7.36853105 16.46511722 C7.37348036 19.46553396 7.35695697 22.46544976 7.34057617 25.46582031 C7.33973015 27.61416614 7.34020456 29.76251283 7.34190369 31.91085815 C7.34276603 37.74935373 7.32510151 43.58766519 7.30418181 49.4261179 C7.28545486 55.52534113 7.28366772 61.62456837 7.28010559 67.72381592 C7.27077342 79.27641204 7.24614374 90.82892321 7.21605712 102.38148189 C7.1825496 115.53246123 7.16603628 128.68344458 7.15097082 141.83445597 C7.11959524 168.88968445 7.06681194 195.94483747 7 223 C6.67 223 6.34 223 6 223 C5.67 216.4 5.34 209.8 5 203 C4.67 203 4.34 203 4 203 C3.505 104.99 3.505 104.99 3 5 C0.38218565 3.69109282 -1.54471487 3.86900187 -4.47791481 3.8613348 C-5.64883443 3.85586036 -6.81975404 3.85038591 -8.02615607 3.84474558 C-9.32379806 3.84376747 -10.62144006 3.84278936 -11.95840454 3.84178162 C-13.34194024 3.83721854 -14.72547456 3.8322189 -16.10900724 3.82681805 C-19.92401274 3.81319848 -23.73900931 3.80580758 -27.5540328 3.79939139 C-31.66311286 3.79140417 -35.77217421 3.77770064 -39.88124084 3.76467896 C-47.00485271 3.74289234 -54.12846645 3.72475586 -61.25209427 3.70907402 C-71.55176012 3.68639526 -81.85140527 3.65824969 -92.15105359 3.62875474 C-108.86013337 3.58105434 -125.5692216 3.53779681 -142.27832031 3.49731445 C-158.51302753 3.45797197 -174.74772722 3.41654875 -190.98242188 3.37231445 C-191.98253995 3.36959018 -192.98265802 3.36686591 -194.0130827 3.36405908 C-199.03020539 3.35037981 -204.04732798 3.3366595 -209.0644505 3.32291877 C-250.70961802 3.20891554 -292.35480174 3.10211471 -334 3 C-334 2.67 -334 2.34 -334 2 C-223.78 2 -113.56 2 0 2 C0 1.34 0 0.68 0 0 Z " fill="#565656" transform="translate(419,132)"/>
<path d="M0 0 C20.82857143 0 20.82857143 0 26.3125 5.1875 C28.50346123 8.83910205 28.66002512 11.89496573 28 16 C26.27871988 20.8014656 24.55829244 22.79767893 20 25 C15.95532074 25.38061599 12.07447585 25.13432338 8 25 C8 29.62 8 34.24 8 39 C5.36 39 2.72 39 0 39 C0 26.13 0 13.26 0 0 Z " fill="#141414" transform="translate(296,240)"/>
<path d="M0 0 C9.23198916 -0.16269703 18.46347962 -0.28682296 27.69659328 -0.3626852 C31.9846886 -0.39910897 36.27179813 -0.44845548 40.55932617 -0.52807617 C44.70264836 -0.60453119 48.8450268 -0.64607182 52.98900032 -0.6641407 C54.56425892 -0.67700484 56.13946992 -0.70212631 57.71432304 -0.7401104 C66.18464435 -0.93615059 72.6953744 -0.96794419 79.2285614 5.15809631 C79.81313614 5.76592453 80.39771088 6.37375275 81 7 C92.07365972 16.7388923 100.88525028 17.28649841 115.3125 17.0625 C117.22852653 17.06558121 119.14455102 17.07271285 121.06054688 17.08398438 C125.70832617 17.1026415 130.35269349 17.06665892 135 17 C135 17.33 135 17.66 135 18 C24.45 18 -86.1 18 -200 18 C-200 17.67 -200 17.34 -200 17 C-199.05439398 16.99576806 -198.10878796 16.99153612 -197.13452721 16.98717594 C-173.74338945 16.88233268 -150.35227301 16.77343118 -126.9611721 16.66066074 C-115.64778761 16.60620485 -104.33440018 16.55292111 -93.02099609 16.50268555 C-79.91762436 16.44433458 -66.81427137 16.38274045 -53.7109375 16.31640625 C-52.64145843 16.31099335 -51.57197935 16.30558045 -50.47009182 16.30000353 C-12.41918148 16.10509812 25.62497174 15.69286946 63.67066002 15.03417873 C67.06678284 14.98434695 70.315526 15.10904649 73.6875 15.5 C74.89986328 15.63921875 74.89986328 15.63921875 76.13671875 15.78125 C76.75160156 15.8534375 77.36648438 15.925625 78 16 C75.74259377 13.66475218 73.7194239 11.81294927 71 10 C71 9.34 71 8.68 71 8 C70.34 8 69.68 8 69 8 C69 7.34 69 6.68 69 6 C66.03 5.01 63.06 4.02 60 3 C60 2.67 60 2.34 60 2 C52.08 1.67 44.16 1.34 36 1 C35.34 2.65 34.68 4.3 34 6 C33.34 6 32.68 6 32 6 C32.33 4.35 32.66 2.7 33 1 C29.37 1 25.74 1 22 1 C22 1.66 22 2.32 22 3 C21.01 2.505 21.01 2.505 20 2 C18.4804236 1.84876169 16.95527498 1.75118307 15.4296875 1.68359375 C14.53378906 1.64169922 13.63789063 1.59980469 12.71484375 1.55664062 C11.77769531 1.51732422 10.84054687 1.47800781 9.875 1.4375 C8.93011719 1.39431641 7.98523438 1.35113281 7.01171875 1.30664062 C4.67462908 1.20040928 2.3374317 1.09836824 0 1 C0 0.67 0 0.34 0 0 Z " fill="#252525" transform="translate(288,340)"/>
<path d="M0 0 C1.07224388 -0.00259024 1.07224388 -0.00259024 2.16614926 -0.00523281 C4.5840044 -0.00962655 7.00179094 -0.00660525 9.41964722 -0.00341797 C11.16867978 -0.00448014 12.91771216 -0.00586772 14.66674423 -0.0075531 C19.50305932 -0.01041097 24.3393423 -0.00585389 29.17565298 0.0006218 C32.27348592 0.00441706 35.37131575 0.00647159 38.46915054 0.00808716 C93.14892461 0.0413917 147.82628109 0.53694682 202.50352502 1.02015781 C212.32743842 1.10690632 222.15136839 1.19156212 231.97531128 1.27490234 C232.67944219 1.28087633 233.38357311 1.28685033 234.10904132 1.29300535 C237.64571484 1.32300087 241.18238863 1.35296347 244.71906257 1.38290977 C273.49934764 1.62664459 302.27958201 1.87603344 331.05978394 2.12939453 C331.05978394 2.45939453 331.05978394 2.78939453 331.05978394 3.12939453 C218.19978394 3.12939453 105.33978394 3.12939453 -10.94021606 3.12939453 C-8.86867026 -1.01369707 -4.06551637 0.00253182 0 0 Z " fill="#A8A8A8" transform="translate(88.94021606445313,128.87060546875)"/>
<path d="M0 0 C0.845625 0.4846875 1.69125 0.969375 2.5625 1.46875 C2.3125 3.34375 2.3125 3.34375 1.5625 5.46875 C-0.5 6.71875 -0.5 6.71875 -2.4375 7.46875 C-3.4275 6.80875 -4.4175 6.14875 -5.4375 5.46875 C-7.72398848 5.22767674 -7.72398848 5.22767674 -10.125 5.34375 C-11.33736328 5.37082031 -11.33736328 5.37082031 -12.57421875 5.3984375 C-13.18910156 5.42164063 -13.80398438 5.44484375 -14.4375 5.46875 C-15.18707157 8.94022842 -15.18707157 8.94022842 -15.4375 12.46875 C-14.64085937 12.56671875 -13.84421875 12.6646875 -13.0234375 12.765625 C-6.82764878 13.63996988 -2.21562219 14.31932809 2.5625 18.46875 C5.06554378 22.22331567 5.01530074 24.01620934 4.5625 28.46875 C2.79200411 32.00974178 1.18993856 34.00964861 -2 36.34375 C-7.65162944 38.19337418 -13.30213806 38.70911297 -18.92578125 36.484375 C-22.79395027 34.25828839 -22.79395027 34.25828839 -24.4375 32.46875 C-24.4375 28.46875 -24.4375 28.46875 -23.0625 26.71875 C-21.4375 25.46875 -21.4375 25.46875 -19.4375 25.46875 C-18.9425 26.12875 -18.4475 26.78875 -17.9375 27.46875 C-14.49333475 30.2240822 -11.87016931 29.8263206 -7.58203125 29.70703125 C-5.4575301 29.69701178 -5.4575301 29.69701178 -4.4375 28.46875 C-4.39686168 26.80257885 -4.394779 25.13486905 -4.4375 23.46875 C-7.41487937 22.16614652 -10.27123197 21.26538261 -13.4375 20.59375 C-17.22453774 19.69173345 -19.60884293 18.21169019 -22.4375 15.46875 C-24.31964759 11.70445482 -24.06043265 7.55955516 -23.4375 3.46875 C-18.39718771 -3.94347395 -7.60246142 -3.386551 0 0 Z " fill="#0E0E0E" transform="translate(317.4375,199.53125)"/>
<path d="M0 0 C8.25 0 16.5 0 25 0 C25 1.98 25 3.96 25 6 C19.06 6 13.12 6 7 6 C7 8.97 7 11.94 7 15 C12.28 15 17.56 15 23 15 C23 16.98 23 18.96 23 21 C17.72 21 12.44 21 7 21 C7 24.63 7 28.26 7 32 C13.27 32 19.54 32 26 32 C26 33.98 26 35.96 26 38 C17.42 38 8.84 38 0 38 C0 25.46 0 12.92 0 0 Z " fill="#060606" transform="translate(227,241)"/>
<path d="M0 0 C8.25 0 16.5 0 25 0 C25 1.98 25 3.96 25 6 C19.06 6 13.12 6 7 6 C7 9.3 7 12.6 7 16 C12.28 16 17.56 16 23 16 C23 17.98 23 19.96 23 22 C17.72 22 12.44 22 7 22 C7 25.3 7 28.6 7 32 C12.94 32 18.88 32 25 32 C25 33.98 25 35.96 25 38 C16.75 38 8.5 38 0 38 C0 25.46 0 12.92 0 0 Z " fill="#080808" transform="translate(263,198)"/>
<path d="M0 0 C9.9 0 19.8 0 30 0 C30 2.31 30 4.62 30 7 C26.37 7 22.74 7 19 7 C19 17.56 19 28.12 19 39 C16.36 39 13.72 39 11 39 C11 28.11 11 17.22 11 6 C7.37 6 3.74 6 0 6 C0 4.02 0 2.04 0 0 Z " fill="#141414" transform="translate(325,198)"/>
<path d="M0 0 C2.701875 -0.061875 5.40375 -0.12375 8.1875 -0.1875 C9.02949951 -0.21481201 9.87149902 -0.24212402 10.73901367 -0.27026367 C15.26272324 -0.32027021 18.40963014 -0.08671076 22 3 C22 3.99 22 4.98 22 6 C20.02 6 18.04 6 16 6 C16 9.96 16 13.92 16 18 C10.72 18 5.44 18 0 18 C0 12.06 0 6.12 0 0 Z " fill="#F6FBFD" transform="translate(165,221)"/>
<path d="M0 0 C0.66 0.33 1.32 0.66 2 1 C3.70702735 1.06996014 5.41668003 1.08440154 7.125 1.0625 C8.49011719 1.04896484 8.49011719 1.04896484 9.8828125 1.03515625 C10.58148438 1.02355469 11.28015625 1.01195312 12 1 C12 1.66 12 2.32 12 3 C-44.2510554 4.07432556 -100.4936772 4.12641939 -156.75336993 4.07202661 C-168.81509876 4.06057994 -180.87682836 4.05528429 -192.93856132 4.05032361 C-217.62571358 4.04004182 -242.31285615 4.02260882 -267 4 C-267 3.67 -267 3.34 -267 3 C-266.05439398 2.99576806 -265.10878796 2.99153612 -264.13452721 2.98717594 C-240.74338945 2.88233268 -217.35227301 2.77343118 -193.9611721 2.66066074 C-182.6477876 2.60620485 -171.33440017 2.55292439 -160.02099609 2.50268555 C-95.98667844 2.22391887 -95.98667844 2.22391887 -31.9554944 1.55786014 C-29.67954562 1.52754995 -27.40358093 1.49893125 -25.12760544 1.47070503 C-21.02196963 1.41922803 -16.91652229 1.35885504 -12.81103516 1.29663086 C-11.61043079 1.28170279 -10.40982643 1.26677471 -9.17284012 1.25139427 C-8.09765499 1.2332448 -7.02246986 1.21509533 -5.91470337 1.19639587 C-4.98216547 1.18254821 -4.04962757 1.16870054 -3.08883095 1.15443325 C-1.01178226 1.22946425 -1.01178226 1.22946425 0 0 Z " fill="#151515" transform="translate(355,354)"/>
<path d="M0 0 C2.60478883 -0.0809313 5.20706653 -0.14045434 7.8125 -0.1875 C8.55048828 -0.21263672 9.28847656 -0.23777344 10.04882812 -0.26367188 C15.45744243 -0.33709198 15.45744243 -0.33709198 17.98046875 1.23046875 C19.25299613 3.43910823 19.46605781 4.95433591 19.5 7.5 C19.5309375 8.2734375 19.561875 9.046875 19.59375 9.84375 C19 12 19 12 16.92578125 13.76953125 C13.31828712 15.28670168 10.58806093 15.29686152 6.6875 15.1875 C3.3771875 15.0946875 3.3771875 15.0946875 0 15 C0 10.05 0 5.1 0 0 Z " fill="#F8FBFD" transform="translate(165,197)"/>
<path d="M0 0 C0 4.29 0 8.58 0 13 C7.92 13.33 15.84 13.66 24 14 C24 15.98 24 17.96 24 20 C19.8882744 20.02465746 15.77657722 20.04283959 11.66479492 20.05493164 C10.26504772 20.0599708 8.8653058 20.06680216 7.46557617 20.07543945 C5.45754223 20.0875232 3.44947043 20.09269807 1.44140625 20.09765625 C0.23170166 20.10289307 -0.97800293 20.10812988 -2.22436523 20.11352539 C-5 20 -5 20 -6 19 C-6.08631874 17.65732587 -6.10706473 16.31025678 -6.09765625 14.96484375 C-6.09443359 14.15595703 -6.09121094 13.34707031 -6.08789062 12.51367188 C-6.07951172 11.66353516 -6.07113281 10.81339844 -6.0625 9.9375 C-6.05798828 9.08349609 -6.05347656 8.22949219 -6.04882812 7.34960938 C-6.03700373 5.23304337 -6.01906769 3.11651315 -6 1 C-1.125 0 -1.125 0 0 0 Z " fill="#38B5FD" transform="translate(189,255)"/>
<path d="M0 0 C1.51400391 0.01740234 1.51400391 0.01740234 3.05859375 0.03515625 C4.07050781 0.04417969 5.08242188 0.05320312 6.125 0.0625 C7.29869141 0.07990234 7.29869141 0.07990234 8.49609375 0.09765625 C8.82609375 2.40765625 9.15609375 4.71765625 9.49609375 7.09765625 C25.83109375 7.59265625 25.83109375 7.59265625 42.49609375 8.09765625 C42.99109375 9.08765625 42.99109375 9.08765625 43.49609375 10.09765625 C45.81765972 10.50494853 48.15297245 10.84204302 50.49609375 11.09765625 C50.49609375 11.42765625 50.49609375 11.75765625 50.49609375 12.09765625 C32.7152493 12.37081978 15.20237138 11.75768876 -2.50390625 10.09765625 C-2.69802806 8.61934404 -2.88402756 7.13996309 -3.06640625 5.66015625 C-3.17082031 4.83644531 -3.27523438 4.01273437 -3.3828125 3.1640625 C-3.42277344 2.48214844 -3.46273438 1.80023438 -3.50390625 1.09765625 C-2.50390625 0.09765625 -2.50390625 0.09765625 0 0 Z " fill="#7A7A7A" transform="translate(21.50390625,357.90234375)"/>
<path d="M0 0 C0.66 0.33 1.32 0.66 2 1 C2 1.66 2 2.32 2 3 C68.99 3 135.98 3 205 3 C205 3.33 205 3.66 205 4 C136.36 4 67.72 4 -3 4 C-2.34 3.67 -1.68 3.34 -1 3 C-0.67 2.01 -0.34 1.02 0 0 Z " fill="#767676" transform="translate(78,355)"/>
<path d="M0 0 C2.31 0 4.62 0 7 0 C7.02689216 1.47906892 7.04634621 2.95827483 7.0625 4.4375 C7.07410156 5.26121094 7.08570313 6.08492188 7.09765625 6.93359375 C7 9 7 9 6 10 C4.24157505 10.22934339 2.47484779 10.39558048 0.70703125 10.53515625 C-0.3927002 10.6223291 -1.49243164 10.70950195 -2.62548828 10.79931641 C-3.80095215 10.88616699 -4.97641602 10.97301758 -6.1875 11.0625 C-7.36812012 11.15192871 -8.54874023 11.24135742 -9.76513672 11.33349609 C-17.86420833 11.9181259 -25.8788798 12.26578212 -34 12 C-34 11.67 -34 11.34 -34 11 C-29.545 10.505 -29.545 10.505 -25 10 C-45.295 9.505 -45.295 9.505 -66 9 C-66 8.67 -66 8.34 -66 8 C-45.54 8 -25.08 8 -4 8 C-3.67 6.68 -3.34 5.36 -3 4 C-2.34 3.67 -1.68 3.34 -1 3 C-0.67 2.01 -0.34 1.02 0 0 Z " fill="#888888" transform="translate(474,358)"/>
<path d="M0 0 C0.66 0.66 1.32 1.32 2 2 C1.51322375 2.34348638 1.02644751 2.68697275 0.52492046 3.04086781 C-1.72909188 5.93669632 -1.42286239 8.82514866 -1.39872742 12.34611511 C-1.40537424 13.10005202 -1.41202107 13.85398893 -1.41886932 14.63077241 C-1.43756481 17.16438476 -1.43488969 19.69752758 -1.43237305 22.23120117 C-1.44138623 24.04443533 -1.45171234 25.85766337 -1.46325684 27.67088318 C-1.49090517 32.60031634 -1.50012196 37.52963414 -1.50611091 42.45913482 C-1.51547423 47.60816404 -1.54167591 52.7571064 -1.56611633 57.90608215 C-1.60984132 67.65952247 -1.63835141 77.412946 -1.66143972 87.16645461 C-1.68845927 98.2691439 -1.73237274 109.37174606 -1.77772844 120.47437322 C-1.87066063 143.31620162 -1.94230207 166.15805735 -2 189 C-2.33 189 -2.66 189 -3 189 C-3.15378077 164.78318832 -3.30181729 140.56634746 -3.4429636 116.34945869 C-3.508631 105.10583793 -3.57619768 93.86223451 -3.64819336 82.61865234 C-3.71091988 72.82189068 -3.7701259 63.02511525 -3.82505554 53.22830665 C-3.85428043 48.03815121 -3.88530128 42.84802019 -3.92053413 37.65790176 C-3.95360842 32.77758032 -3.98199255 27.89725457 -4.00670624 23.01688385 C-4.01663894 21.2213244 -4.02831729 19.42577366 -4.04183006 17.63023758 C-4.05995866 15.18742003 -4.07192833 12.74464931 -4.08229065 10.30178833 C-4.08909444 9.58389763 -4.09589823 8.86600693 -4.10290819 8.12636197 C-4.11412121 3.22824242 -4.11412121 3.22824242 -3 1 C-2.01 0.67 -1.02 0.34 0 0 Z " fill="#8B8B8B" transform="translate(80,131)"/>
<path d="M0 0 C10.625 -0.25 10.625 -0.25 14 2 C14.3125 5.5 14.3125 5.5 14 9 C12 11 12 11 9.1796875 11.1953125 C8.08914062 11.17210937 6.99859375 11.14890625 5.875 11.125 C4.77929688 11.10695312 3.68359375 11.08890625 2.5546875 11.0703125 C1.71164063 11.04710937 0.86859375 11.02390625 0 11 C0 7.37 0 3.74 0 0 Z " fill="#F7F7F7" transform="translate(233,219)"/>
<path d="M0 0 C1.60875 -0.04125 3.2175 -0.0825 4.875 -0.125 C5.77992188 -0.14820313 6.68484375 -0.17140625 7.6171875 -0.1953125 C10 0 10 0 12 2 C12.25 5.5 12.25 5.5 12 9 C10 11 10 11 7.6171875 11.1953125 C6.71226562 11.17210937 5.80734375 11.14890625 4.875 11.125 C2.461875 11.063125 2.461875 11.063125 0 11 C0 7.37 0 3.74 0 0 Z " fill="#FAFAFA" transform="translate(304,247)"/>
<path d="M0 0 C0.99 0.495 0.99 0.495 2 1 C3.70702735 1.06996014 5.41668003 1.08440154 7.125 1.0625 C8.49011719 1.04896484 8.49011719 1.04896484 9.8828125 1.03515625 C10.58148438 1.02355469 11.28015625 1.01195312 12 1 C12 1.66 12 2.32 12 3 C3.29545367 3.13324378 -5.40912832 3.26374901 -14.1137619 3.39115143 C-18.15968275 3.45044586 -22.20558777 3.5105386 -26.25146484 3.57275391 C-47.83616831 3.90394295 -69.41265406 4.07312405 -91 4 C-91 3.67 -91 3.34 -91 3 C-78.59530052 2.19572961 -66.1968664 1.87193622 -53.76953125 1.71875 C-53.00561947 1.70920288 -52.24170769 1.69965576 -51.45464706 1.68981934 C-45.08724626 1.61144709 -38.71975882 1.54139025 -32.35223389 1.47393799 C-27.55770976 1.42307494 -22.76326219 1.36843739 -17.96884727 1.30812073 C-15.73688887 1.28160471 -13.50492238 1.26079421 -11.27290344 1.2401123 C-9.92257312 1.22353125 -8.5722463 1.20666141 -7.22192383 1.18945312 C-6.04092606 1.17692505 -4.85992828 1.16439697 -3.6431427 1.15148926 C-1.07669247 1.29852163 -1.07669247 1.29852163 0 0 Z " fill="#1C1C1C" transform="translate(355,354)"/>
<path d="M0 0 C1.60875 -0.04125 3.2175 -0.0825 4.875 -0.125 C5.77992188 -0.14820313 6.68484375 -0.17140625 7.6171875 -0.1953125 C10 0 10 0 12 2 C12.3125 5 12.3125 5 12 8 C7.7975546 10.80163026 4.99895065 10.14489712 0 10 C0 6.7 0 3.4 0 0 Z " fill="#F6F6F6" transform="translate(268,247)"/>
<path d="M0 0 C5.94 0.33 11.88 0.66 18 1 C18 4.3 18 7.6 18 11 C14.93466836 12.53266582 11.73245728 12.10276471 8.375 12.0625 C7.66859375 12.05798828 6.9621875 12.05347656 6.234375 12.04882812 C4.48954725 12.03703875 2.744763 12.01910324 1 12 C0.34 15.3 -0.32 18.6 -1 22 C6.26 22 13.52 22 21 22 C21 22.33 21 22.66 21 23 C13.41 23 5.82 23 -2 23 C-2 18.38 -2 13.76 -2 9 C4.27 9 10.54 9 17 9 C17 6.69 17 4.38 17 2 C11.39 2 5.78 2 0 2 C0 1.34 0 0.68 0 0 Z " fill="#C6EDFC" transform="translate(193,245)"/>
<path d="M0 0 C1.62490954 -0.02698189 3.24994633 -0.04638757 4.875 -0.0625 C5.77992188 -0.07410156 6.68484375 -0.08570313 7.6171875 -0.09765625 C10 0 10 0 12 1 C12.125 3.875 12.125 3.875 12 7 C10 9 10 9 7.6171875 9.1953125 C6.71226562 9.17210937 5.80734375 9.14890625 4.875 9.125 C3.50988281 9.09792969 3.50988281 9.09792969 2.1171875 9.0703125 C1.41851562 9.04710937 0.71984375 9.02390625 0 9 C0 6.03 0 3.06 0 0 Z " fill="#F6F6F6" transform="translate(233,204)"/>
<path d="M0 0 C0.79642914 -0.00274933 1.59285828 -0.00549866 2.41342163 -0.0083313 C3.27800995 -0.00114075 4.14259827 0.0060498 5.03338623 0.01345825 C5.95080597 0.0131662 6.86822571 0.01287415 7.81344604 0.01257324 C10.84356163 0.01396574 13.87343083 0.02952332 16.90350342 0.04519653 C19.00528835 0.04892694 21.10707502 0.05177378 23.2088623 0.05377197 C28.73924567 0.06140621 34.26952389 0.08105298 39.79986572 0.10317993 C45.44377215 0.12364282 51.08769558 0.13277464 56.73162842 0.14285278 C67.80459126 0.164299 78.8774761 0.1984325 89.95037842 0.24050903 C89.95037842 0.57050903 89.95037842 0.90050903 89.95037842 1.24050903 C88.80667786 1.2508165 87.66297729 1.26112396 86.48461914 1.27174377 C75.71359359 1.36944143 64.94262627 1.47217215 54.17169571 1.57984829 C48.6340763 1.63504518 43.09645158 1.6884601 37.55877686 1.73782349 C32.21601502 1.78551462 26.8733173 1.83785928 21.53063202 1.89344978 C19.49087874 1.91385178 17.45110789 1.93256842 15.41132355 1.94958305 C12.5574152 1.97367466 9.70362773 2.00372288 6.84979248 2.03518677 C6.00390564 2.04094223 5.1580188 2.04669769 4.28649902 2.05262756 C0.01396341 2.07204622 0.01396341 2.07204622 -4.17297745 2.81289768 C-6.04962158 3.24050903 -6.04962158 3.24050903 -8.04962158 2.24050903 C-5.23545103 0.65377219 -3.22567814 -0.00862481 0 0 Z " fill="#C4C4C4" transform="translate(86.04962158203125,128.75949096679688)"/>
<path d="M0 0 C1.18239258 0.07831055 1.18239258 0.07831055 2.38867188 0.15820312 C4.32201529 0.28709269 6.25482164 0.42399494 8.1875 0.5625 C8.5175 1.8825 8.8475 3.2025 9.1875 4.5625 C2.5875 4.8925 -4.0125 5.2225 -10.8125 5.5625 C-11.1425 4.5725 -11.4725 3.5825 -11.8125 2.5625 C-12.4725 2.5625 -13.1325 2.5625 -13.8125 2.5625 C-13.8125 1.9025 -13.8125 1.2425 -13.8125 0.5625 C-9.12565199 -0.70548493 -4.77955063 -0.34855063 0 0 Z " fill="#38B6FD" transform="translate(202.8125,228.4375)"/>
<path d="M0 0 C0.66 0.66 1.32 1.32 2 2 C1.27087654 2.52748589 1.27087654 2.52748589 0.52702332 3.06562805 C-1.75097886 5.95130992 -1.40059681 8.30839449 -1.43237305 11.94995117 C-1.4425647 12.65264633 -1.45275635 13.35534149 -1.46325684 14.07933044 C-1.493437 16.40062378 -1.50266006 18.72150483 -1.51171875 21.04296875 C-1.52856179 22.65295285 -1.54671152 24.26292377 -1.56611633 25.87287903 C-1.61366355 30.10936362 -1.64344218 34.34579479 -1.66955566 38.5824585 C-1.6993375 42.90599115 -1.74587594 47.22933961 -1.79101562 51.55273438 C-1.87710239 60.03506586 -1.94442356 68.51741402 -2 77 C-2.33 77 -2.66 77 -3 77 C-3.15367978 67.38622526 -3.30186146 57.77238629 -3.4429636 48.15841866 C-3.50865228 43.69459508 -3.57625692 39.23081745 -3.64819336 34.76708984 C-3.71750578 30.4618594 -3.78184661 26.15658109 -3.84269524 21.85122299 C-3.86682871 20.2061072 -3.89277396 18.56101699 -3.92053413 16.9159584 C-3.9590177 14.61735282 -3.99114215 12.31874182 -4.02172852 10.02001953 C-4.04171402 8.7098587 -4.06169952 7.39969788 -4.08229065 6.04983521 C-4 3 -4 3 -3 1 C-2.01 0.67 -1.02 0.34 0 0 Z " fill="#919191" transform="translate(80,131)"/>
<path d="M0 0 C2.31 0 4.62 0 7 0 C7 2.97 7 5.94 7 9 C4.03 9 1.06 9 -2 9 C-2.33 7.35 -2.66 5.7 -3 4 C-2.34 3.67 -1.68 3.34 -1 3 C-0.67 2.01 -0.34 1.02 0 0 Z " fill="#646464" transform="translate(474,358)"/>
<path d="M0 0 C2.97 0 5.94 0 9 0 C8.13350722 4.09614769 7.53809513 6.47535725 4.5 9.4375 C2 11 2 11 0 11 C0 7.37 0 3.74 0 0 Z " fill="#5278F3" transform="translate(191,235)"/>
<path d="M0 0 C11.22 0 22.44 0 34 0 C34 0.33 34 0.66 34 1 C36.31 1.33 38.62 1.66 41 2 C41 2.33 41 2.66 41 3 C36.52084672 3.02886338 32.04171709 3.04675187 27.5625 3.0625 C26.28310547 3.07087891 25.00371094 3.07925781 23.68554688 3.08789062 C21.86313477 3.09272461 21.86313477 3.09272461 20.00390625 3.09765625 C18.87799072 3.10289307 17.7520752 3.10812988 16.59204102 3.11352539 C14 3 14 3 13 2 C10.81707226 1.76518307 8.62796826 1.58636677 6.4375 1.4375 C5.23996094 1.35371094 4.04242188 1.26992188 2.80859375 1.18359375 C1.88175781 1.12300781 0.95492188 1.06242187 0 1 C0 0.67 0 0.34 0 0 Z " fill="#545454" transform="translate(31,367)"/>
<path d="M0 0 C1.98 0 3.96 0 6 0 C6 0.66 6 1.32 6 2 C6.99 2.33 7.98 2.66 9 3 C8.67 4.65 8.34 6.3 8 8 C5.03 8 2.06 8 -1 8 C-0.67 5.36 -0.34 2.72 0 0 Z " fill="#444444" transform="translate(20,359)"/>
<path d="M0 0 C4.29 0 8.58 0 13 0 C13 2.64 13 5.28 13 8 C8.71 8 4.42 8 0 8 C0 7.34 0 6.68 0 6 C3.96 6 7.92 6 12 6 C11.67 5.01 11.34 4.02 11 3 C7.37 2.67 3.74 2.34 0 2 C0 1.34 0 0.68 0 0 Z " fill="#52B2EB" transform="translate(200,227)"/>
<path d="M0 0 C0.66 0.33 1.32 0.66 2 1 C2 1.66 2 2.32 2 3 C14.21 3 26.42 3 39 3 C39 3.33 39 3.66 39 4 C25.14 4 11.28 4 -3 4 C-2.34 3.67 -1.68 3.34 -1 3 C-0.67 2.01 -0.34 1.02 0 0 Z " fill="#757575" transform="translate(78,355)"/>
<path d="M0 0 C3.79598549 1.49128001 5.71720399 3.65733441 8 7 C8 7.99 8 8.98 8 10 C4.04 10 0.08 10 -4 10 C-4 9.67 -4 9.34 -4 9 C-0.535 8.505 -0.535 8.505 3 8 C2.5359375 6.8553125 2.5359375 6.8553125 2.0625 5.6875 C1.32106407 3.81210323 0.63771783 1.91315348 0 0 Z " fill="#567CF0" transform="translate(192,217)"/>
<path d="M0 0 C0.66 0.33 1.32 0.66 2 1 C2 1.99 2 2.98 2 4 C4.64 4 7.28 4 10 4 C10 4.33 10 4.66 10 5 C0.43 4.67 -9.14 4.34 -19 4 C-19 3.67 -19 3.34 -19 3 C-12.73 3 -6.46 3 0 3 C0 2.01 0 1.02 0 0 Z " fill="#939393" transform="translate(470,363)"/>
<path d="M0 0 C1.11503906 0.00644531 2.23007813 0.01289063 3.37890625 0.01953125 C4.53777344 0.03628906 5.69664063 0.05304688 6.890625 0.0703125 C8.65212891 0.08384766 8.65212891 0.08384766 10.44921875 0.09765625 C13.34656036 0.12121187 16.24348941 0.15410598 19.140625 0.1953125 C19.140625 0.5253125 19.140625 0.8553125 19.140625 1.1953125 C18.46483398 1.22036865 17.78904297 1.2454248 17.09277344 1.27124023 C14.0252082 1.38741992 10.95793342 1.51004687 7.890625 1.6328125 C6.82714844 1.67212891 5.76367188 1.71144531 4.66796875 1.75195312 C3.13076172 1.81479492 3.13076172 1.81479492 1.5625 1.87890625 C0.61987305 1.91556396 -0.32275391 1.95222168 -1.29394531 1.98999023 C-3.82485491 2.11664461 -3.82485491 2.11664461 -6.07324219 2.77758789 C-7.859375 3.1953125 -7.859375 3.1953125 -9.859375 2.1953125 C-6.48238712 0.15357715 -3.91391277 -0.03993789 0 0 Z " fill="#BBBBBB" transform="translate(87.859375,128.8046875)"/>
<path d="M0 0 C4.29 0 8.58 0 13 0 C13 0.33 13 0.66 13 1 C9.37 1 5.74 1 2 1 C1.67 2.32 1.34 3.64 1 5 C-0.5625 6.75 -0.5625 6.75 -2 8 C-2.66 7.67 -3.32 7.34 -4 7 C-2.68 4.69 -1.36 2.38 0 0 Z " fill="#ECF7FE" transform="translate(200,236)"/>
<path d="M0 0 C3.3 0 6.6 0 10 0 C9.67 1.32 9.34 2.64 9 4 C8.34 3.67 7.68 3.34 7 3 C7 2.34 7 1.68 7 1 C5.02 1 3.04 1 1 1 C1 2.32 1 3.64 1 5 C0.34 5 -0.32 5 -1 5 C-0.67 3.35 -0.34 1.7 0 0 Z " fill="#757575" transform="translate(19,358)"/>
<path d="M0 0 C0.33 0.99 0.66 1.98 1 3 C4.00847418 4.22520264 4.00847418 4.22520264 7 5 C6.67 6.32 6.34 7.64 6 9 C5.236875 8.360625 4.47375 7.72125 3.6875 7.0625 C1.11753287 4.85767219 1.11753287 4.85767219 -2 4 C-1.34 2.68 -0.68 1.36 0 0 Z " fill="#E2ECFE" transform="translate(191,212)"/>
<path d="M0 0 C2.86724686 0.57344937 3.8614515 0.8614515 6 3 C5.625 5.125 5.625 5.125 5 7 C3.02 5.68 1.04 4.36 -1 3 C-0.67 2.01 -0.34 1.02 0 0 Z " fill="#797979" transform="translate(419,132)"/>
<path d="M0 0 C4.29 0 8.58 0 13 0 C13.66 1.32 14.32 2.64 15 4 C13.515 3.5359375 13.515 3.5359375 12 3.0625 C8.02268878 1.91566793 4.11232621 1.43287644 0 1 C0 0.67 0 0.34 0 0 Z " fill="#D4D4D4" transform="translate(412,130)"/>
<path d="M0 0 C0.33 0.66 0.66 1.32 1 2 C1.99 2.33 2.98 2.66 4 3 C3.01 3.33 2.02 3.66 1 4 C1 4.66 1 5.32 1 6 C-0.32 6.33 -1.64 6.66 -3 7 C-1.125 1.125 -1.125 1.125 0 0 Z " fill="#515151" transform="translate(25,359)"/>
<path d="M0 0 C0.33 0 0.66 0 1 0 C1 1.98 1 3.96 1 6 C1.66 6.33 2.32 6.66 3 7 C2.67 7.66 2.34 8.32 2 9 C-0.32156597 9.40729228 -2.6568787 9.74438677 -5 10 C-4.360625 9.649375 -3.72125 9.29875 -3.0625 8.9375 C-0.17836168 6.22815794 -0.2899178 3.84141089 0 0 Z " fill="#7387F3" transform="translate(184,202)"/>
<path d="M0 0 C1.32 0.66 2.64 1.32 4 2 C4 2.99 4 3.98 4 5 C2.02 5 0.04 5 -2 5 C-2 4.34 -2 3.68 -2 3 C-1.34 2.67 -0.68 2.34 0 2 C0 1.34 0 0.68 0 0 Z " fill="#DFF8FF" transform="translate(183,222)"/>
</svg>
